<svg xmlns="http://www.w3.org/2000/svg" xmlns:xlink="http://www.w3.org/1999/xlink" width="500" zoomAndPan="magnify" viewBox="0 0 375 374.999991" height="500" preserveAspectRatio="xMidYMid meet" version="1.0"><defs><g/></defs><rect x="-37.5" width="450" fill="#ffffff" y="-37.499999" height="449.999989" fill-opacity="1"/><rect x="-37.5" width="450" fill="#60795e" y="-37.499999" height="449.999989" fill-opacity="1"/><g fill="#f7f5f2" fill-opacity="1"><g transform="translate(40.253618, 253.874983)"><g><path d="M 62.53125 2.875 C 59.007812 2.875 55.867188 2.5625 53.109375 1.9375 C 50.359375 1.320312 47.945312 0.597656 45.875 -0.234375 C 43.800781 -1.066406 42.019531 -1.789062 40.53125 -2.40625 C 39.050781 -3.03125 37.816406 -3.34375 36.828125 -3.34375 C 35.535156 -3.34375 34.378906 -3.015625 33.359375 -2.359375 C 32.335938 -1.710938 31.363281 -0.941406 30.4375 -0.046875 C 29.507812 0.847656 28.550781 1.617188 27.5625 2.265625 C 26.570312 2.921875 25.425781 3.25 24.125 3.25 C 22.570312 3.25 21.253906 2.769531 20.171875 1.8125 C 19.097656 0.851562 18.375 -0.738281 18 -2.96875 L 12.15625 -33.765625 C 11.65625 -37.046875 13.078125 -39.273438 16.421875 -40.453125 C 19.890625 -41.691406 22.671875 -40.363281 24.765625 -36.46875 C 28.421875 -29.414062 32.164062 -23.878906 36 -19.859375 C 39.832031 -15.835938 43.742188 -12.988281 47.734375 -11.3125 C 51.722656 -9.644531 55.820312 -8.8125 60.03125 -8.8125 C 65.78125 -8.8125 70.320312 -10.234375 73.65625 -13.078125 C 77 -15.921875 78.671875 -19.789062 78.671875 -24.6875 C 78.671875 -27.09375 78.269531 -29.316406 77.46875 -31.359375 C 76.664062 -33.398438 75.148438 -35.347656 72.921875 -37.203125 C 70.703125 -39.054688 67.503906 -40.894531 63.328125 -42.71875 C 59.148438 -44.550781 53.722656 -46.488281 47.046875 -48.53125 C 37.515625 -51.5 29.875 -54.960938 24.125 -58.921875 C 18.375 -62.878906 14.210938 -67.625 11.640625 -73.15625 C 9.078125 -78.695312 7.796875 -85.238281 7.796875 -92.78125 C 7.796875 -98.59375 8.863281 -103.910156 11 -108.734375 C 13.132812 -113.566406 16.195312 -117.742188 20.1875 -121.265625 C 24.175781 -124.785156 28.96875 -127.503906 34.5625 -129.421875 C 40.15625 -131.347656 46.414062 -132.3125 53.34375 -132.3125 C 57.363281 -132.3125 60.875 -132 63.875 -131.375 C 66.875 -130.757812 69.488281 -130.046875 71.71875 -129.234375 C 73.945312 -128.429688 75.894531 -127.722656 77.5625 -127.109375 C 79.226562 -126.492188 80.710938 -126.1875 82.015625 -126.1875 C 83.128906 -126.1875 84.070312 -126.507812 84.84375 -127.15625 C 85.625 -127.800781 86.398438 -128.570312 87.171875 -129.46875 C 87.941406 -130.375 88.804688 -131.148438 89.765625 -131.796875 C 90.722656 -132.441406 91.914062 -132.765625 93.34375 -132.765625 C 95.007812 -132.765625 96.429688 -132.222656 97.609375 -131.140625 C 98.785156 -130.054688 99.773438 -128.03125 100.578125 -125.0625 L 109.015625 -94.734375 C 109.578125 -92.816406 109.515625 -91.097656 108.828125 -89.578125 C 108.148438 -88.066406 106.945312 -87 105.21875 -86.375 C 103.414062 -85.757812 101.816406 -85.804688 100.421875 -86.515625 C 99.035156 -87.222656 97.910156 -88.445312 97.046875 -90.1875 C 93.210938 -97.851562 89.082031 -103.910156 84.65625 -108.359375 C 80.238281 -112.816406 75.722656 -115.988281 71.109375 -117.875 C 66.503906 -119.757812 61.945312 -120.703125 57.4375 -120.703125 C 51.800781 -120.703125 47.390625 -119.140625 44.203125 -116.015625 C 41.023438 -112.898438 39.4375 -108.804688 39.4375 -103.734375 C 39.4375 -101.378906 39.820312 -99.179688 40.59375 -97.140625 C 41.363281 -95.097656 42.832031 -93.101562 45 -91.15625 C 47.164062 -89.207031 50.273438 -87.226562 54.328125 -85.21875 C 58.378906 -83.207031 63.679688 -81.023438 70.234375 -78.671875 C 79.765625 -75.335938 87.359375 -71.675781 93.015625 -67.6875 C 98.671875 -63.695312 102.765625 -59.132812 105.296875 -54 C 107.835938 -48.863281 109.078125 -42.894531 109.015625 -36.09375 C 109.015625 -30.707031 107.960938 -25.648438 105.859375 -20.921875 C 103.753906 -16.191406 100.707031 -12.046875 96.71875 -8.484375 C 92.726562 -4.929688 87.859375 -2.148438 82.109375 -0.140625 C 76.359375 1.867188 69.832031 2.875 62.53125 2.875 Z M 62.53125 2.875 "/></g></g></g><g fill="#f7f5f2" fill-opacity="1"><g transform="translate(156.967623, 253.874983)"><g><path d="M 45.921875 -5.5625 C 45.921875 -3.894531 45.363281 -2.550781 44.25 -1.53125 C 43.144531 -0.507812 41.414062 0 39.0625 0 L 10.671875 0 C 8.316406 0 6.582031 -0.476562 5.46875 -1.4375 C 4.351562 -2.394531 3.796875 -3.707031 3.796875 -5.375 C 3.796875 -6.988281 4.242188 -8.242188 5.140625 -9.140625 C 6.046875 -10.035156 7.238281 -10.789062 8.71875 -11.40625 L 11.5 -12.4375 C 13.539062 -13.300781 15.210938 -14.472656 16.515625 -15.953125 C 17.816406 -17.441406 18.585938 -19.578125 18.828125 -22.359375 L 25.890625 -106.890625 C 26.128906 -110.097656 25.863281 -112.488281 25.09375 -114.0625 C 24.320312 -115.644531 22.914062 -116.78125 20.875 -117.46875 L 16.890625 -118.671875 C 13.859375 -119.660156 12.34375 -121.609375 12.34375 -124.515625 C 12.34375 -126.179688 12.925781 -127.492188 14.09375 -128.453125 C 15.269531 -129.410156 17.003906 -129.890625 19.296875 -129.890625 L 50.28125 -129.890625 C 53.5625 -129.890625 56.207031 -129.207031 58.21875 -127.84375 C 60.226562 -126.488281 62.007812 -123.769531 63.5625 -119.6875 L 90 -53.25 L 115.234375 -119.3125 C 116.722656 -123.332031 118.46875 -126.097656 120.46875 -127.609375 C 122.476562 -129.128906 125.25 -129.890625 128.78125 -129.890625 L 160.140625 -129.890625 C 162.492188 -129.890625 164.222656 -129.410156 165.328125 -128.453125 C 166.441406 -127.492188 167 -126.179688 167 -124.515625 C 167 -121.609375 165.546875 -119.691406 162.640625 -118.765625 L 158.5625 -117.46875 C 156.457031 -116.78125 155.066406 -115.894531 154.390625 -114.8125 C 153.710938 -113.726562 153.460938 -112.015625 153.640625 -109.671875 L 160.046875 -19.296875 C 160.171875 -17.066406 160.585938 -15.503906 161.296875 -14.609375 C 162.015625 -13.710938 163.238281 -12.988281 164.96875 -12.4375 L 168.953125 -11.140625 C 171.671875 -10.265625 173.03125 -8.4375 173.03125 -5.65625 C 173.03125 -3.988281 172.472656 -2.628906 171.359375 -1.578125 C 170.253906 -0.523438 168.523438 0 166.171875 0 L 118.015625 0 C 115.609375 0 113.832031 -0.476562 112.6875 -1.4375 C 111.539062 -2.394531 110.96875 -3.707031 110.96875 -5.375 C 110.96875 -6.675781 111.289062 -7.820312 111.9375 -8.8125 C 112.59375 -9.800781 113.753906 -10.578125 115.421875 -11.140625 L 119.59375 -12.4375 C 121.632812 -13.113281 122.992188 -13.945312 123.671875 -14.9375 C 124.359375 -15.925781 124.640625 -17.378906 124.515625 -19.296875 L 119.03125 -91.484375 L 89.25 -13.171875 C 88.320312 -10.640625 87.378906 -8.707031 86.421875 -7.375 C 85.460938 -6.039062 84.410156 -5.15625 83.265625 -4.71875 C 82.128906 -4.289062 80.847656 -4.078125 79.421875 -4.078125 C 77.867188 -4.078125 76.472656 -4.265625 75.234375 -4.640625 C 74.003906 -5.015625 72.832031 -5.894531 71.71875 -7.28125 C 70.601562 -8.675781 69.457031 -10.828125 68.28125 -13.734375 L 37.390625 -90.921875 L 31.734375 -22.265625 C 31.484375 -19.484375 32.066406 -17.363281 33.484375 -15.90625 C 34.910156 -14.457031 36.769531 -13.175781 39.0625 -12.0625 L 42.59375 -10.484375 C 43.632812 -10.046875 44.445312 -9.425781 45.03125 -8.625 C 45.625 -7.820312 45.921875 -6.800781 45.921875 -5.5625 Z M 45.921875 -5.5625 "/></g></g></g></svg>