<svg xmlns="http://www.w3.org/2000/svg" xmlns:xlink="http://www.w3.org/1999/xlink" width="500" zoomAndPan="magnify" viewBox="0 0 375 374.999991" height="500" preserveAspectRatio="xMidYMid meet" version="1.0"><defs><g/><clipPath id="7554f1ae93"><path d="M 132 79 L 242.847656 79 L 242.847656 199.46875 L 132 199.46875 Z M 132 79 " clip-rule="nonzero"/></clipPath></defs><rect x="-37.5" width="450" fill="#ffffff" y="-37.499999" height="449.999989" fill-opacity="1"/><rect x="-37.5" width="450" fill="#3e4430" y="-37.499999" height="449.999989" fill-opacity="1"/><g fill="#e7d8d2" fill-opacity="1"><g transform="translate(57.329187, 225.254949)"><g><path d="M 12.828125 -14.015625 C 13.441406 -12.523438 13.578125 -11.195312 13.234375 -10.03125 C 12.890625 -8.875 12.050781 -7.828125 10.71875 -6.890625 C 8.3125 -5.222656 5.804688 -4.875 3.203125 -5.84375 L 2.90625 -5.953125 L 2.90625 -4.5625 C 2.90625 -4.113281 2.90625 -3.660156 2.90625 -3.203125 C 2.90625 -2.742188 2.90625 -2.285156 2.90625 -1.828125 C 2.90625 -1.753906 2.90625 -1.6875 2.90625 -1.625 C 2.914062 -1.570312 2.921875 -1.507812 2.921875 -1.4375 C 2.921875 -1.332031 2.925781 -1.226562 2.9375 -1.125 C 2.945312 -1.03125 2.941406 -0.9375 2.921875 -0.84375 C 2.878906 -0.425781 2.765625 -0.179688 2.578125 -0.109375 C 2.390625 -0.0351562 2.257812 0 2.1875 0 C 1.894531 0.0078125 1.6875 -0.0664062 1.5625 -0.234375 C 1.445312 -0.410156 1.382812 -0.585938 1.375 -0.765625 C 1.300781 -1.304688 1.257812 -1.851562 1.25 -2.40625 C 1.25 -2.957031 1.25 -3.492188 1.25 -4.015625 C 1.25 -4.265625 1.25 -4.503906 1.25 -4.734375 C 1.25 -4.972656 1.25 -5.207031 1.25 -5.4375 C 1.226562 -6.175781 1.203125 -6.910156 1.171875 -7.640625 C 1.148438 -8.378906 1.113281 -9.113281 1.0625 -9.84375 C 1.019531 -10.800781 0.976562 -11.769531 0.9375 -12.75 C 0.894531 -13.738281 0.878906 -14.71875 0.890625 -15.6875 C 0.890625 -16.070312 0.953125 -16.3125 1.078125 -16.40625 C 1.210938 -16.507812 1.363281 -16.5625 1.53125 -16.5625 C 1.53125 -16.5625 1.535156 -16.5625 1.546875 -16.5625 C 1.691406 -16.5625 1.828125 -16.515625 1.953125 -16.421875 C 2.078125 -16.328125 2.160156 -16.09375 2.203125 -15.71875 L 2.21875 -15.5625 L 2.328125 -15.515625 C 2.398438 -15.472656 2.476562 -15.472656 2.5625 -15.515625 C 2.644531 -15.554688 2.765625 -15.628906 2.921875 -15.734375 C 3.210938 -15.953125 3.660156 -16.226562 4.265625 -16.5625 C 4.867188 -16.894531 5.644531 -17.113281 6.59375 -17.21875 C 8.070312 -17.425781 9.351562 -17.25 10.4375 -16.6875 C 11.53125 -16.125 12.328125 -15.234375 12.828125 -14.015625 Z M 11.15625 -10.8125 C 11.300781 -12.65625 10.675781 -13.984375 9.28125 -14.796875 C 8.625 -15.171875 7.910156 -15.351562 7.140625 -15.34375 C 6.367188 -15.332031 5.65625 -15.125 5 -14.71875 C 4.570312 -14.445312 4.242188 -14.191406 4.015625 -13.953125 C 3.796875 -13.710938 3.625 -13.425781 3.5 -13.09375 C 3.375 -12.757812 3.273438 -12.320312 3.203125 -11.78125 C 3.203125 -11.78125 3.195312 -11.65625 3.1875 -11.40625 C 3.175781 -11.164062 3.160156 -10.859375 3.140625 -10.484375 C 3.128906 -10.117188 3.125 -9.75 3.125 -9.375 C 3.125 -9 3.132812 -8.679688 3.15625 -8.421875 C 3.1875 -8.160156 3.238281 -8.007812 3.3125 -7.96875 C 4.207031 -7.488281 5.113281 -7.25 6.03125 -7.25 C 7.613281 -7.25 9.097656 -7.941406 10.484375 -9.328125 C 10.890625 -9.734375 11.113281 -10.226562 11.15625 -10.8125 Z M 11.15625 -10.8125 "/></g></g></g><g fill="#e7d8d2" fill-opacity="1"><g transform="translate(71.64988, 225.254949)"><g><path d="M 12.859375 -7.4375 C 12.835938 -7.726562 12.832031 -8.015625 12.84375 -8.296875 C 12.851562 -8.585938 12.859375 -8.878906 12.859375 -9.171875 C 12.023438 -9.171875 11.21875 -9.171875 10.4375 -9.171875 C 9.664062 -9.171875 8.882812 -9.171875 8.09375 -9.171875 C 7.34375 -9.171875 6.582031 -9.171875 5.8125 -9.171875 C 5.039062 -9.171875 4.253906 -9.171875 3.453125 -9.171875 C 3.429688 -8.960938 3.414062 -8.785156 3.40625 -8.640625 C 3.40625 -8.492188 3.40625 -8.359375 3.40625 -8.234375 C 3.394531 -7.179688 3.378906 -6.140625 3.359375 -5.109375 C 3.347656 -4.078125 3.328125 -3.035156 3.296875 -1.984375 C 3.296875 -1.753906 3.273438 -1.519531 3.234375 -1.28125 C 3.203125 -1.039062 3.132812 -0.828125 3.03125 -0.640625 C 2.945312 -0.472656 2.804688 -0.328125 2.609375 -0.203125 C 2.410156 -0.078125 2.222656 -0.0078125 2.046875 0 C 1.898438 0 1.734375 -0.0625 1.546875 -0.1875 C 1.359375 -0.320312 1.226562 -0.460938 1.15625 -0.609375 C 1.050781 -0.816406 0.976562 -1.039062 0.9375 -1.28125 C 0.90625 -1.519531 0.890625 -1.753906 0.890625 -1.984375 C 0.953125 -4.140625 1.015625 -6.289062 1.078125 -8.4375 C 1.140625 -10.59375 1.207031 -12.75 1.28125 -14.90625 C 1.28125 -15.039062 1.289062 -15.171875 1.3125 -15.296875 C 1.34375 -15.429688 1.363281 -15.5625 1.375 -15.6875 C 1.4375 -15.957031 1.539062 -16.1875 1.6875 -16.375 C 1.832031 -16.5625 2.054688 -16.648438 2.359375 -16.640625 C 2.648438 -16.617188 2.851562 -16.515625 2.96875 -16.328125 C 3.082031 -16.140625 3.148438 -15.914062 3.171875 -15.65625 C 3.191406 -15.082031 3.210938 -14.515625 3.234375 -13.953125 C 3.265625 -13.398438 3.289062 -12.835938 3.3125 -12.265625 C 3.3125 -12.078125 3.3125 -11.890625 3.3125 -11.703125 C 3.3125 -11.523438 3.3125 -11.320312 3.3125 -11.09375 C 4.363281 -11.394531 5.410156 -11.585938 6.453125 -11.671875 C 7.492188 -11.765625 8.535156 -11.800781 9.578125 -11.78125 C 10.628906 -11.769531 11.691406 -11.78125 12.765625 -11.8125 C 12.722656 -12.476562 12.679688 -13.140625 12.640625 -13.796875 C 12.609375 -14.453125 12.570312 -15.109375 12.53125 -15.765625 C 12.53125 -15.953125 12.519531 -16.144531 12.5 -16.34375 C 12.476562 -16.550781 12.503906 -16.734375 12.578125 -16.890625 C 12.660156 -17.054688 12.84375 -17.179688 13.125 -17.265625 C 13.394531 -17.347656 13.65625 -17.285156 13.90625 -17.078125 C 14.15625 -16.878906 14.316406 -16.550781 14.390625 -16.09375 C 14.578125 -14.863281 14.742188 -13.640625 14.890625 -12.421875 C 15.046875 -11.203125 15.191406 -9.972656 15.328125 -8.734375 C 15.421875 -7.628906 15.5 -6.519531 15.5625 -5.40625 C 15.632812 -4.289062 15.707031 -3.171875 15.78125 -2.046875 C 15.863281 -0.835938 15.546875 -0.1875 14.828125 -0.09375 C 14.460938 -0.0390625 14.144531 -0.148438 13.875 -0.421875 C 13.601562 -0.691406 13.429688 -1.125 13.359375 -1.71875 C 13.242188 -2.664062 13.148438 -3.617188 13.078125 -4.578125 C 13.003906 -5.546875 12.929688 -6.5 12.859375 -7.4375 Z M 12.859375 -7.4375 "/></g></g></g><g fill="#e7d8d2" fill-opacity="1"><g transform="translate(88.350078, 225.254949)"><g><path d="M 3.125 -2.640625 C 2.3125 -3.398438 1.722656 -4.253906 1.359375 -5.203125 C 1.003906 -6.160156 0.847656 -7.242188 0.890625 -8.453125 C 0.910156 -9.304688 1.039062 -10.179688 1.28125 -11.078125 C 1.53125 -11.972656 1.910156 -12.835938 2.421875 -13.671875 C 2.992188 -14.628906 3.703125 -15.410156 4.546875 -16.015625 C 5.390625 -16.628906 6.316406 -17.023438 7.328125 -17.203125 C 8.347656 -17.390625 9.390625 -17.320312 10.453125 -17 C 11.398438 -16.726562 12.320312 -16.378906 13.21875 -15.953125 C 14.125 -15.535156 14.921875 -14.929688 15.609375 -14.140625 C 16.222656 -13.410156 16.695312 -12.601562 17.03125 -11.71875 C 17.363281 -10.832031 17.539062 -9.914062 17.5625 -8.96875 C 17.59375 -8.019531 17.472656 -7.085938 17.203125 -6.171875 C 16.941406 -5.253906 16.519531 -4.421875 15.9375 -3.671875 C 15.75 -3.390625 15.546875 -3.117188 15.328125 -2.859375 C 15.109375 -2.609375 14.875 -2.375 14.625 -2.15625 C 13.644531 -1.28125 12.59375 -0.65625 11.46875 -0.28125 C 10.351562 0.09375 9.132812 0.109375 7.8125 -0.234375 C 6.957031 -0.453125 6.128906 -0.75 5.328125 -1.125 C 4.523438 -1.507812 3.789062 -2.015625 3.125 -2.640625 Z M 4.1875 -12.703125 C 3.800781 -12.015625 3.503906 -11.300781 3.296875 -10.5625 C 3.085938 -9.832031 2.957031 -9.066406 2.90625 -8.265625 C 2.976562 -7.890625 3.039062 -7.507812 3.09375 -7.125 C 3.144531 -6.75 3.234375 -6.382812 3.359375 -6.03125 C 3.546875 -5.488281 3.910156 -4.960938 4.453125 -4.453125 C 4.992188 -3.953125 5.613281 -3.523438 6.3125 -3.171875 C 7.019531 -2.816406 7.734375 -2.5625 8.453125 -2.40625 C 9.171875 -2.257812 9.816406 -2.257812 10.390625 -2.40625 C 11.453125 -2.695312 12.359375 -3.195312 13.109375 -3.90625 C 13.867188 -4.625 14.421875 -5.476562 14.765625 -6.46875 C 15.117188 -7.46875 15.21875 -8.539062 15.0625 -9.6875 C 14.925781 -10.644531 14.570312 -11.453125 14 -12.109375 C 13.4375 -12.765625 12.695312 -13.285156 11.78125 -13.671875 C 11.34375 -13.859375 10.910156 -14.070312 10.484375 -14.3125 C 10.066406 -14.5625 9.644531 -14.796875 9.21875 -15.015625 C 9.050781 -15.085938 8.875 -15.164062 8.6875 -15.25 C 8.507812 -15.34375 8.34375 -15.378906 8.1875 -15.359375 C 6.394531 -15.191406 5.0625 -14.304688 4.1875 -12.703125 Z M 4.1875 -12.703125 "/></g></g></g><g fill="#e7d8d2" fill-opacity="1"><g transform="translate(106.818529, 225.254949)"><g><path d="M 15.796875 -17.03125 C 16.035156 -16.90625 16.238281 -16.75 16.40625 -16.5625 C 16.570312 -16.375 16.597656 -16.148438 16.484375 -15.890625 C 16.390625 -15.703125 16.238281 -15.523438 16.03125 -15.359375 C 15.820312 -15.203125 15.625 -15.109375 15.4375 -15.078125 C 14.664062 -14.992188 13.894531 -14.929688 13.125 -14.890625 C 12.363281 -14.847656 11.601562 -14.796875 10.84375 -14.734375 C 10.6875 -14.734375 10.519531 -14.726562 10.34375 -14.71875 C 10.164062 -14.71875 9.957031 -14.707031 9.71875 -14.6875 C 9.789062 -13.0625 9.863281 -11.457031 9.9375 -9.875 C 10.007812 -8.300781 10.082031 -6.726562 10.15625 -5.15625 C 10.164062 -4.550781 10.1875 -3.957031 10.21875 -3.375 C 10.25 -2.800781 10.269531 -2.210938 10.28125 -1.609375 C 10.28125 -1.441406 10.269531 -1.257812 10.25 -1.0625 C 10.226562 -0.875 10.164062 -0.722656 10.0625 -0.609375 C 9.957031 -0.460938 9.8125 -0.320312 9.625 -0.1875 C 9.445312 -0.0625 9.28125 0 9.125 0 C 8.96875 0 8.796875 -0.0625 8.609375 -0.1875 C 8.429688 -0.320312 8.289062 -0.472656 8.1875 -0.640625 C 8.082031 -0.773438 8.019531 -0.941406 8 -1.140625 C 7.976562 -1.335938 7.960938 -1.53125 7.953125 -1.71875 C 7.828125 -3.832031 7.726562 -5.941406 7.65625 -8.046875 C 7.582031 -10.148438 7.664062 -12.253906 7.90625 -14.359375 C 7.90625 -14.378906 7.894531 -14.40625 7.875 -14.4375 C 7.863281 -14.476562 7.84375 -14.535156 7.8125 -14.609375 C 7.289062 -14.554688 6.757812 -14.507812 6.21875 -14.46875 C 5.675781 -14.425781 5.128906 -14.390625 4.578125 -14.359375 C 4.191406 -14.328125 3.800781 -14.304688 3.40625 -14.296875 C 3.007812 -14.285156 2.609375 -14.285156 2.203125 -14.296875 C 1.898438 -14.296875 1.609375 -14.347656 1.328125 -14.453125 C 1.054688 -14.554688 0.910156 -14.8125 0.890625 -15.21875 C 0.878906 -15.601562 1.003906 -15.859375 1.265625 -15.984375 C 1.523438 -16.109375 1.816406 -16.1875 2.140625 -16.21875 C 3.453125 -16.300781 4.757812 -16.382812 6.0625 -16.46875 C 7.375 -16.5625 8.6875 -16.644531 10 -16.71875 C 10.257812 -16.738281 10.609375 -16.765625 11.046875 -16.796875 C 11.492188 -16.828125 11.972656 -16.863281 12.484375 -16.90625 C 12.992188 -16.957031 13.484375 -16.992188 13.953125 -17.015625 C 14.429688 -17.046875 14.835938 -17.066406 15.171875 -17.078125 C 15.503906 -17.085938 15.710938 -17.070312 15.796875 -17.03125 Z M 15.796875 -17.03125 "/></g></g></g><g fill="#e7d8d2" fill-opacity="1"><g transform="translate(124.260961, 225.254949)"><g><path d="M 3.125 -2.640625 C 2.3125 -3.398438 1.722656 -4.253906 1.359375 -5.203125 C 1.003906 -6.160156 0.847656 -7.242188 0.890625 -8.453125 C 0.910156 -9.304688 1.039062 -10.179688 1.28125 -11.078125 C 1.53125 -11.972656 1.910156 -12.835938 2.421875 -13.671875 C 2.992188 -14.628906 3.703125 -15.410156 4.546875 -16.015625 C 5.390625 -16.628906 6.316406 -17.023438 7.328125 -17.203125 C 8.347656 -17.390625 9.390625 -17.320312 10.453125 -17 C 11.398438 -16.726562 12.320312 -16.378906 13.21875 -15.953125 C 14.125 -15.535156 14.921875 -14.929688 15.609375 -14.140625 C 16.222656 -13.410156 16.695312 -12.601562 17.03125 -11.71875 C 17.363281 -10.832031 17.539062 -9.914062 17.5625 -8.96875 C 17.59375 -8.019531 17.472656 -7.085938 17.203125 -6.171875 C 16.941406 -5.253906 16.519531 -4.421875 15.9375 -3.671875 C 15.75 -3.390625 15.546875 -3.117188 15.328125 -2.859375 C 15.109375 -2.609375 14.875 -2.375 14.625 -2.15625 C 13.644531 -1.28125 12.59375 -0.65625 11.46875 -0.28125 C 10.351562 0.09375 9.132812 0.109375 7.8125 -0.234375 C 6.957031 -0.453125 6.128906 -0.75 5.328125 -1.125 C 4.523438 -1.507812 3.789062 -2.015625 3.125 -2.640625 Z M 4.1875 -12.703125 C 3.800781 -12.015625 3.503906 -11.300781 3.296875 -10.5625 C 3.085938 -9.832031 2.957031 -9.066406 2.90625 -8.265625 C 2.976562 -7.890625 3.039062 -7.507812 3.09375 -7.125 C 3.144531 -6.75 3.234375 -6.382812 3.359375 -6.03125 C 3.546875 -5.488281 3.910156 -4.960938 4.453125 -4.453125 C 4.992188 -3.953125 5.613281 -3.523438 6.3125 -3.171875 C 7.019531 -2.816406 7.734375 -2.5625 8.453125 -2.40625 C 9.171875 -2.257812 9.816406 -2.257812 10.390625 -2.40625 C 11.453125 -2.695312 12.359375 -3.195312 13.109375 -3.90625 C 13.867188 -4.625 14.421875 -5.476562 14.765625 -6.46875 C 15.117188 -7.46875 15.21875 -8.539062 15.0625 -9.6875 C 14.925781 -10.644531 14.570312 -11.453125 14 -12.109375 C 13.4375 -12.765625 12.695312 -13.285156 11.78125 -13.671875 C 11.34375 -13.859375 10.910156 -14.070312 10.484375 -14.3125 C 10.066406 -14.5625 9.644531 -14.796875 9.21875 -15.015625 C 9.050781 -15.085938 8.875 -15.164062 8.6875 -15.25 C 8.507812 -15.34375 8.34375 -15.378906 8.1875 -15.359375 C 6.394531 -15.191406 5.0625 -14.304688 4.1875 -12.703125 Z M 4.1875 -12.703125 "/></g></g></g><g fill="#e7d8d2" fill-opacity="1"><g transform="translate(142.729412, 225.254949)"><g/></g></g><g fill="#e7d8d2" fill-opacity="1"><g transform="translate(151.265068, 225.254949)"><g><path d="M 10.375 -0.171875 C 10.101562 -0.117188 9.828125 -0.0820312 9.546875 -0.0625 C 9.273438 -0.0507812 9.003906 -0.03125 8.734375 0 C 8.003906 0.03125 7.328125 -0.078125 6.703125 -0.328125 C 6.078125 -0.578125 5.46875 -0.890625 4.875 -1.265625 C 3.757812 -1.929688 2.894531 -2.738281 2.28125 -3.6875 C 1.664062 -4.632812 1.253906 -5.640625 1.046875 -6.703125 C 0.835938 -7.773438 0.820312 -8.847656 1 -9.921875 C 1.1875 -11.003906 1.535156 -12.015625 2.046875 -12.953125 C 2.554688 -13.890625 3.207031 -14.6875 4 -15.34375 C 4.257812 -15.5625 4.53125 -15.769531 4.8125 -15.96875 C 5.09375 -16.175781 5.378906 -16.367188 5.671875 -16.546875 C 6.503906 -17.066406 7.34375 -17.3125 8.1875 -17.28125 C 9.03125 -17.257812 9.875 -17.03125 10.71875 -16.59375 C 10.832031 -16.53125 10.953125 -16.453125 11.078125 -16.359375 C 11.203125 -16.273438 11.289062 -16.175781 11.34375 -16.0625 C 11.40625 -15.945312 11.453125 -15.800781 11.484375 -15.625 C 11.515625 -15.445312 11.5 -15.3125 11.4375 -15.21875 C 11.375 -15.113281 11.257812 -15.046875 11.09375 -15.015625 C 10.925781 -14.984375 10.769531 -14.945312 10.625 -14.90625 C 10.601562 -14.894531 10.570312 -14.898438 10.53125 -14.921875 C 10.5 -14.941406 10.46875 -14.957031 10.4375 -14.96875 C 9.226562 -15.4375 8.15625 -15.46875 7.21875 -15.0625 C 6.289062 -14.664062 5.460938 -14.019531 4.734375 -13.125 C 3.816406 -11.957031 3.273438 -10.738281 3.109375 -9.46875 C 2.953125 -8.207031 3.195312 -6.898438 3.84375 -5.546875 C 4.039062 -5.109375 4.34375 -4.691406 4.75 -4.296875 C 5.164062 -3.898438 5.640625 -3.554688 6.171875 -3.265625 C 6.703125 -2.984375 7.242188 -2.765625 7.796875 -2.609375 C 8.347656 -2.453125 8.867188 -2.394531 9.359375 -2.4375 C 9.796875 -2.46875 10.226562 -2.535156 10.65625 -2.640625 C 11.09375 -2.742188 11.519531 -2.832031 11.9375 -2.90625 C 12.070312 -2.9375 12.210938 -2.972656 12.359375 -3.015625 C 12.503906 -3.054688 12.632812 -3.054688 12.75 -3.015625 C 12.90625 -2.984375 13.070312 -2.921875 13.25 -2.828125 C 13.4375 -2.742188 13.5625 -2.640625 13.625 -2.515625 C 13.695312 -2.367188 13.71875 -2.1875 13.6875 -1.96875 C 13.65625 -1.75 13.585938 -1.582031 13.484375 -1.46875 C 13.367188 -1.289062 13.210938 -1.140625 13.015625 -1.015625 C 12.816406 -0.898438 12.625 -0.804688 12.4375 -0.734375 C 12.101562 -0.609375 11.757812 -0.5 11.40625 -0.40625 C 11.0625 -0.320312 10.71875 -0.242188 10.375 -0.171875 Z M 10.375 -0.171875 "/></g></g></g><g fill="#e7d8d2" fill-opacity="1"><g transform="translate(165.847727, 225.254949)"><g><path d="M 3.125 -2.640625 C 2.3125 -3.398438 1.722656 -4.253906 1.359375 -5.203125 C 1.003906 -6.160156 0.847656 -7.242188 0.890625 -8.453125 C 0.910156 -9.304688 1.039062 -10.179688 1.28125 -11.078125 C 1.53125 -11.972656 1.910156 -12.835938 2.421875 -13.671875 C 2.992188 -14.628906 3.703125 -15.410156 4.546875 -16.015625 C 5.390625 -16.628906 6.316406 -17.023438 7.328125 -17.203125 C 8.347656 -17.390625 9.390625 -17.320312 10.453125 -17 C 11.398438 -16.726562 12.320312 -16.378906 13.21875 -15.953125 C 14.125 -15.535156 14.921875 -14.929688 15.609375 -14.140625 C 16.222656 -13.410156 16.695312 -12.601562 17.03125 -11.71875 C 17.363281 -10.832031 17.539062 -9.914062 17.5625 -8.96875 C 17.59375 -8.019531 17.472656 -7.085938 17.203125 -6.171875 C 16.941406 -5.253906 16.519531 -4.421875 15.9375 -3.671875 C 15.75 -3.390625 15.546875 -3.117188 15.328125 -2.859375 C 15.109375 -2.609375 14.875 -2.375 14.625 -2.15625 C 13.644531 -1.28125 12.59375 -0.65625 11.46875 -0.28125 C 10.351562 0.09375 9.132812 0.109375 7.8125 -0.234375 C 6.957031 -0.453125 6.128906 -0.75 5.328125 -1.125 C 4.523438 -1.507812 3.789062 -2.015625 3.125 -2.640625 Z M 4.1875 -12.703125 C 3.800781 -12.015625 3.503906 -11.300781 3.296875 -10.5625 C 3.085938 -9.832031 2.957031 -9.066406 2.90625 -8.265625 C 2.976562 -7.890625 3.039062 -7.507812 3.09375 -7.125 C 3.144531 -6.75 3.234375 -6.382812 3.359375 -6.03125 C 3.546875 -5.488281 3.910156 -4.960938 4.453125 -4.453125 C 4.992188 -3.953125 5.613281 -3.523438 6.3125 -3.171875 C 7.019531 -2.816406 7.734375 -2.5625 8.453125 -2.40625 C 9.171875 -2.257812 9.816406 -2.257812 10.390625 -2.40625 C 11.453125 -2.695312 12.359375 -3.195312 13.109375 -3.90625 C 13.867188 -4.625 14.421875 -5.476562 14.765625 -6.46875 C 15.117188 -7.46875 15.21875 -8.539062 15.0625 -9.6875 C 14.925781 -10.644531 14.570312 -11.453125 14 -12.109375 C 13.4375 -12.765625 12.695312 -13.285156 11.78125 -13.671875 C 11.34375 -13.859375 10.910156 -14.070312 10.484375 -14.3125 C 10.066406 -14.5625 9.644531 -14.796875 9.21875 -15.015625 C 9.050781 -15.085938 8.875 -15.164062 8.6875 -15.25 C 8.507812 -15.34375 8.34375 -15.378906 8.1875 -15.359375 C 6.394531 -15.191406 5.0625 -14.304688 4.1875 -12.703125 Z M 4.1875 -12.703125 "/></g></g></g><g fill="#e7d8d2" fill-opacity="1"><g transform="translate(184.316178, 225.254949)"><g><path d="M 3.96875 -13.984375 C 3.894531 -13.941406 3.832031 -13.90625 3.78125 -13.875 C 3.726562 -13.707031 3.679688 -13.535156 3.640625 -13.359375 C 3.597656 -13.179688 3.570312 -13.003906 3.5625 -12.828125 C 3.425781 -11.046875 3.296875 -9.257812 3.171875 -7.46875 C 3.046875 -5.6875 2.910156 -3.90625 2.765625 -2.125 C 2.742188 -1.832031 2.695312 -1.539062 2.625 -1.25 C 2.550781 -0.957031 2.453125 -0.6875 2.328125 -0.4375 C 2.253906 -0.300781 2.113281 -0.191406 1.90625 -0.109375 C 1.707031 -0.0351562 1.53125 -0.00390625 1.375 -0.015625 C 1.289062 -0.015625 1.1875 -0.101562 1.0625 -0.28125 C 0.945312 -0.46875 0.890625 -0.628906 0.890625 -0.765625 C 0.910156 -1.648438 0.929688 -2.535156 0.953125 -3.421875 C 0.972656 -4.316406 1.023438 -5.207031 1.109375 -6.09375 C 1.285156 -7.59375 1.484375 -9.082031 1.703125 -10.5625 C 1.921875 -12.050781 2.140625 -13.546875 2.359375 -15.046875 C 2.398438 -15.359375 2.523438 -15.582031 2.734375 -15.71875 C 2.953125 -15.863281 3.21875 -15.882812 3.53125 -15.78125 C 4.25 -15.550781 4.890625 -15.207031 5.453125 -14.75 C 6.023438 -14.289062 6.535156 -13.769531 6.984375 -13.1875 C 7.484375 -12.5625 7.953125 -11.910156 8.390625 -11.234375 C 8.835938 -10.566406 9.285156 -9.90625 9.734375 -9.25 C 9.816406 -9.125 9.910156 -8.984375 10.015625 -8.828125 C 10.117188 -8.671875 10.238281 -8.492188 10.375 -8.296875 C 10.457031 -8.453125 10.53125 -8.59375 10.59375 -8.71875 C 10.664062 -8.84375 10.726562 -8.960938 10.78125 -9.078125 C 11.113281 -9.742188 11.4375 -10.421875 11.75 -11.109375 C 12.0625 -11.796875 12.410156 -12.46875 12.796875 -13.125 C 13.171875 -13.769531 13.578125 -14.40625 14.015625 -15.03125 C 14.460938 -15.664062 14.910156 -16.285156 15.359375 -16.890625 C 15.453125 -17.023438 15.601562 -17.132812 15.8125 -17.21875 C 16.019531 -17.3125 16.195312 -17.34375 16.34375 -17.3125 C 16.488281 -17.269531 16.640625 -17.164062 16.796875 -17 C 16.953125 -16.84375 17.039062 -16.6875 17.0625 -16.53125 C 17.207031 -15.882812 17.335938 -15.234375 17.453125 -14.578125 C 17.578125 -13.921875 17.675781 -13.265625 17.75 -12.609375 C 17.9375 -10.847656 18.113281 -9.085938 18.28125 -7.328125 C 18.457031 -5.566406 18.632812 -3.804688 18.8125 -2.046875 C 18.8125 -1.960938 18.816406 -1.875 18.828125 -1.78125 C 18.835938 -1.695312 18.832031 -1.601562 18.8125 -1.5 C 18.78125 -1.257812 18.707031 -1.039062 18.59375 -0.84375 C 18.488281 -0.644531 18.296875 -0.523438 18.015625 -0.484375 C 17.703125 -0.453125 17.453125 -0.507812 17.265625 -0.65625 C 17.085938 -0.800781 16.972656 -1.007812 16.921875 -1.28125 C 16.847656 -1.695312 16.773438 -2.109375 16.703125 -2.515625 C 16.628906 -2.921875 16.578125 -3.328125 16.546875 -3.734375 C 16.460938 -4.835938 16.382812 -5.945312 16.3125 -7.0625 C 16.25 -8.1875 16.179688 -9.300781 16.109375 -10.40625 C 16.046875 -11.082031 15.984375 -11.742188 15.921875 -12.390625 C 15.867188 -13.046875 15.816406 -13.703125 15.765625 -14.359375 C 15.734375 -14.378906 15.703125 -14.390625 15.671875 -14.390625 C 15.640625 -14.398438 15.609375 -14.410156 15.578125 -14.421875 C 15.453125 -14.234375 15.316406 -14.046875 15.171875 -13.859375 C 15.023438 -13.671875 14.898438 -13.472656 14.796875 -13.265625 C 14.429688 -12.566406 14.082031 -11.863281 13.75 -11.15625 C 13.414062 -10.457031 13.070312 -9.75 12.71875 -9.03125 C 12.53125 -8.644531 12.34375 -8.253906 12.15625 -7.859375 C 11.96875 -7.460938 11.765625 -7.082031 11.546875 -6.71875 C 11.285156 -6.28125 10.96875 -6.039062 10.59375 -6 C 10.226562 -5.957031 9.863281 -6.117188 9.5 -6.484375 C 9.28125 -6.710938 9.070312 -6.953125 8.875 -7.203125 C 8.6875 -7.460938 8.507812 -7.734375 8.34375 -8.015625 C 7.976562 -8.566406 7.617188 -9.132812 7.265625 -9.71875 C 6.921875 -10.300781 6.550781 -10.859375 6.15625 -11.390625 C 5.820312 -11.859375 5.460938 -12.300781 5.078125 -12.71875 C 4.703125 -13.132812 4.332031 -13.554688 3.96875 -13.984375 Z M 3.96875 -13.984375 "/></g></g></g><g fill="#e7d8d2" fill-opacity="1"><g transform="translate(204.028959, 225.254949)"><g><path d="M 3.40625 -15.578125 C 3.414062 -15.203125 3.425781 -14.664062 3.4375 -13.96875 C 3.445312 -13.28125 3.460938 -12.5 3.484375 -11.625 C 3.503906 -10.757812 3.519531 -9.859375 3.53125 -8.921875 C 3.550781 -7.992188 3.566406 -7.097656 3.578125 -6.234375 C 3.597656 -5.367188 3.609375 -4.597656 3.609375 -3.921875 C 3.609375 -3.242188 3.609375 -2.726562 3.609375 -2.375 C 3.609375 -2.113281 3.597656 -1.847656 3.578125 -1.578125 C 3.566406 -1.304688 3.503906 -1.0625 3.390625 -0.84375 C 3.285156 -0.644531 3.117188 -0.457031 2.890625 -0.28125 C 2.660156 -0.101562 2.445312 -0.0078125 2.25 0 C 2.0625 0.0078125 1.859375 -0.0664062 1.640625 -0.234375 C 1.421875 -0.410156 1.253906 -0.59375 1.140625 -0.78125 C 1.015625 -0.957031 0.941406 -1.171875 0.921875 -1.421875 C 0.898438 -1.671875 0.890625 -1.910156 0.890625 -2.140625 C 0.929688 -4.378906 0.984375 -6.617188 1.046875 -8.859375 C 1.109375 -11.097656 1.164062 -13.347656 1.21875 -15.609375 C 1.257812 -16.753906 1.644531 -17.320312 2.375 -17.3125 C 3.050781 -17.28125 3.394531 -16.703125 3.40625 -15.578125 Z M 3.40625 -15.578125 "/></g></g></g><g fill="#e7d8d2" fill-opacity="1"><g transform="translate(210.206937, 225.254949)"><g><path d="M 13.5625 -3.390625 C 13.601562 -3.398438 13.640625 -3.40625 13.671875 -3.40625 C 13.710938 -3.414062 13.753906 -3.421875 13.796875 -3.421875 C 13.835938 -4.484375 13.882812 -5.535156 13.9375 -6.578125 C 13.988281 -7.628906 14.015625 -8.679688 14.015625 -9.734375 C 13.992188 -10.609375 13.941406 -11.472656 13.859375 -12.328125 C 13.785156 -13.191406 13.726562 -14.0625 13.6875 -14.9375 C 13.675781 -15.207031 13.6875 -15.476562 13.71875 -15.75 C 13.757812 -16.03125 13.8125 -16.300781 13.875 -16.5625 C 13.9375 -16.8125 14.054688 -17.003906 14.234375 -17.140625 C 14.410156 -17.285156 14.632812 -17.332031 14.90625 -17.28125 C 15.164062 -17.238281 15.359375 -17.128906 15.484375 -16.953125 C 15.617188 -16.785156 15.679688 -16.570312 15.671875 -16.3125 C 15.660156 -14.820312 15.6875 -13.332031 15.75 -11.84375 C 15.8125 -10.363281 15.847656 -8.882812 15.859375 -7.40625 C 15.878906 -5.925781 15.800781 -4.445312 15.625 -2.96875 C 15.59375 -2.71875 15.566406 -2.460938 15.546875 -2.203125 C 15.523438 -1.941406 15.476562 -1.695312 15.40625 -1.46875 C 15.257812 -0.96875 14.988281 -0.644531 14.59375 -0.5 C 14.207031 -0.351562 13.796875 -0.421875 13.359375 -0.703125 C 13.097656 -0.859375 12.847656 -1.078125 12.609375 -1.359375 C 11.316406 -2.867188 10.019531 -4.382812 8.71875 -5.90625 C 7.425781 -7.425781 6.144531 -8.953125 4.875 -10.484375 C 4.582031 -10.828125 4.300781 -11.191406 4.03125 -11.578125 C 3.757812 -11.960938 3.460938 -12.375 3.140625 -12.8125 C 3.140625 -12.625 3.128906 -12.472656 3.109375 -12.359375 C 3.097656 -12.242188 3.09375 -12.132812 3.09375 -12.03125 C 3.082031 -10.28125 3.066406 -8.535156 3.046875 -6.796875 C 3.023438 -5.054688 3.003906 -3.316406 2.984375 -1.578125 C 2.984375 -1.453125 2.976562 -1.332031 2.96875 -1.21875 C 2.96875 -1.101562 2.960938 -0.988281 2.953125 -0.875 C 2.890625 -0.644531 2.789062 -0.441406 2.65625 -0.265625 C 2.53125 -0.0976562 2.320312 -0.0078125 2.03125 0 C 1.769531 0.0078125 1.554688 -0.0507812 1.390625 -0.1875 C 1.222656 -0.320312 1.109375 -0.515625 1.046875 -0.765625 C 0.984375 -0.984375 0.9375 -1.207031 0.90625 -1.4375 C 0.882812 -1.675781 0.878906 -1.90625 0.890625 -2.125 C 0.984375 -4.144531 1.078125 -6.164062 1.171875 -8.1875 C 1.265625 -10.207031 1.351562 -12.226562 1.4375 -14.25 C 1.457031 -14.539062 1.515625 -14.84375 1.609375 -15.15625 C 1.679688 -15.363281 1.800781 -15.507812 1.96875 -15.59375 C 2.132812 -15.6875 2.316406 -15.675781 2.515625 -15.5625 C 2.828125 -15.382812 3.144531 -15.203125 3.46875 -15.015625 C 3.789062 -14.828125 4.066406 -14.59375 4.296875 -14.3125 C 5.671875 -12.769531 7.019531 -11.210938 8.34375 -9.640625 C 9.675781 -8.078125 11.015625 -6.507812 12.359375 -4.9375 C 12.578125 -4.6875 12.78125 -4.429688 12.96875 -4.171875 C 13.15625 -3.910156 13.351562 -3.648438 13.5625 -3.390625 Z M 13.5625 -3.390625 "/></g></g></g><g fill="#e7d8d2" fill-opacity="1"><g transform="translate(226.972627, 225.254949)"><g><path d="M 10 -2.953125 C 11.832031 -3.617188 13.003906 -4.96875 13.515625 -7 C 12.984375 -7.0625 12.460938 -7.113281 11.953125 -7.15625 C 11.453125 -7.195312 10.953125 -7.265625 10.453125 -7.359375 C 9.910156 -7.429688 9.4375 -7.59375 9.03125 -7.84375 C 8.914062 -7.894531 8.816406 -8.003906 8.734375 -8.171875 C 8.660156 -8.335938 8.628906 -8.488281 8.640625 -8.625 C 8.660156 -8.738281 8.738281 -8.859375 8.875 -8.984375 C 9.007812 -9.109375 9.132812 -9.171875 9.25 -9.171875 C 10.09375 -9.179688 10.941406 -9.1875 11.796875 -9.1875 C 12.648438 -9.1875 13.5 -9.148438 14.34375 -9.078125 C 14.644531 -9.066406 14.921875 -8.941406 15.171875 -8.703125 C 15.421875 -8.460938 15.601562 -8.171875 15.71875 -7.828125 C 15.832031 -7.492188 15.859375 -7.160156 15.796875 -6.828125 C 15.628906 -5.710938 15.28125 -4.71875 14.75 -3.84375 C 14.226562 -2.976562 13.585938 -2.25 12.828125 -1.65625 C 12.078125 -1.070312 11.25 -0.640625 10.34375 -0.359375 C 9.445312 -0.078125 8.515625 0.0351562 7.546875 -0.015625 C 6.585938 -0.0664062 5.660156 -0.296875 4.765625 -0.703125 C 3.609375 -1.222656 2.722656 -1.953125 2.109375 -2.890625 C 1.503906 -3.828125 1.128906 -4.910156 0.984375 -6.140625 C 0.765625 -8.097656 0.9375 -10.003906 1.5 -11.859375 C 1.894531 -13.140625 2.535156 -14.210938 3.421875 -15.078125 C 4.316406 -15.953125 5.375 -16.578125 6.59375 -16.953125 C 7.8125 -17.335938 9.117188 -17.410156 10.515625 -17.171875 C 11.117188 -17.078125 11.71875 -16.929688 12.3125 -16.734375 C 12.90625 -16.546875 13.492188 -16.367188 14.078125 -16.203125 C 14.304688 -16.128906 14.503906 -16.003906 14.671875 -15.828125 C 14.847656 -15.648438 14.890625 -15.410156 14.796875 -15.109375 C 14.710938 -14.816406 14.554688 -14.660156 14.328125 -14.640625 C 14.097656 -14.617188 13.878906 -14.617188 13.671875 -14.640625 C 13.128906 -14.710938 12.59375 -14.800781 12.0625 -14.90625 C 11.53125 -15.019531 10.992188 -15.113281 10.453125 -15.1875 C 8.429688 -15.425781 6.804688 -15.046875 5.578125 -14.046875 C 4.347656 -13.046875 3.640625 -11.539062 3.453125 -9.53125 C 3.378906 -8.757812 3.347656 -8.003906 3.359375 -7.265625 C 3.390625 -6.203125 3.617188 -5.332031 4.046875 -4.65625 C 4.472656 -3.976562 5.019531 -3.46875 5.6875 -3.125 C 6.363281 -2.789062 7.078125 -2.609375 7.828125 -2.578125 C 8.585938 -2.554688 9.3125 -2.679688 10 -2.953125 Z M 10 -2.953125 "/></g></g></g><g fill="#e7d8d2" fill-opacity="1"><g transform="translate(243.716479, 225.254949)"><g/></g></g><g fill="#e7d8d2" fill-opacity="1"><g transform="translate(252.252125, 225.254949)"><g><path d="M 10.703125 -4.5 C 10.484375 -3.65625 10.066406 -2.890625 9.453125 -2.203125 C 8.835938 -1.515625 8.109375 -0.972656 7.265625 -0.578125 C 6.421875 -0.179688 5.523438 0.0078125 4.578125 0 C 3.859375 -0.03125 3.175781 -0.203125 2.53125 -0.515625 C 1.894531 -0.828125 1.394531 -1.367188 1.03125 -2.140625 C 0.957031 -2.296875 0.910156 -2.488281 0.890625 -2.71875 C 0.878906 -2.957031 0.925781 -3.132812 1.03125 -3.25 C 1.113281 -3.363281 1.265625 -3.425781 1.484375 -3.4375 C 1.710938 -3.457031 1.914062 -3.460938 2.09375 -3.453125 C 2.25 -3.453125 2.398438 -3.414062 2.546875 -3.34375 C 2.691406 -3.269531 2.832031 -3.1875 2.96875 -3.09375 C 3.507812 -2.71875 4.128906 -2.546875 4.828125 -2.578125 C 5.523438 -2.609375 6.191406 -2.835938 6.828125 -3.265625 C 7.472656 -3.691406 7.96875 -4.300781 8.3125 -5.09375 C 8.457031 -5.40625 8.484375 -5.707031 8.390625 -6 C 8.296875 -6.289062 8.085938 -6.523438 7.765625 -6.703125 C 7.492188 -6.847656 7.203125 -6.96875 6.890625 -7.0625 C 6.578125 -7.15625 6.265625 -7.242188 5.953125 -7.328125 C 5.648438 -7.421875 5.34375 -7.492188 5.03125 -7.546875 C 4.726562 -7.597656 4.425781 -7.664062 4.125 -7.75 C 3 -8.082031 2.179688 -8.675781 1.671875 -9.53125 C 1.171875 -10.394531 1.050781 -11.394531 1.3125 -12.53125 C 1.5 -13.414062 1.84375 -14.203125 2.34375 -14.890625 C 2.84375 -15.585938 3.472656 -16.179688 4.234375 -16.671875 C 4.804688 -17.054688 5.414062 -17.265625 6.0625 -17.296875 C 6.71875 -17.335938 7.335938 -17.21875 7.921875 -16.9375 C 8.515625 -16.664062 8.988281 -16.257812 9.34375 -15.71875 C 9.425781 -15.570312 9.46875 -15.40625 9.46875 -15.21875 C 9.46875 -15.03125 9.476562 -14.847656 9.5 -14.671875 C 9.351562 -14.679688 9.195312 -14.6875 9.03125 -14.6875 C 8.863281 -14.6875 8.710938 -14.722656 8.578125 -14.796875 C 8.242188 -15.003906 7.894531 -15.175781 7.53125 -15.3125 C 7.175781 -15.445312 6.804688 -15.492188 6.421875 -15.453125 C 6.242188 -15.421875 6.0625 -15.382812 5.875 -15.34375 C 5.695312 -15.3125 5.535156 -15.25 5.390625 -15.15625 C 4.828125 -14.738281 4.363281 -14.257812 4 -13.71875 C 3.632812 -13.175781 3.414062 -12.546875 3.34375 -11.828125 C 3.238281 -10.828125 3.648438 -10.195312 4.578125 -9.9375 C 4.984375 -9.8125 5.394531 -9.707031 5.8125 -9.625 C 6.226562 -9.550781 6.640625 -9.460938 7.046875 -9.359375 C 7.890625 -9.140625 8.640625 -8.804688 9.296875 -8.359375 C 9.960938 -7.921875 10.421875 -7.253906 10.671875 -6.359375 C 10.765625 -6.066406 10.8125 -5.753906 10.8125 -5.421875 C 10.820312 -5.097656 10.785156 -4.789062 10.703125 -4.5 Z M 10.703125 -4.5 "/></g></g></g><g fill="#e7d8d2" fill-opacity="1"><g transform="translate(263.953184, 225.254949)"><g><path d="M 3.125 -2.640625 C 2.3125 -3.398438 1.722656 -4.253906 1.359375 -5.203125 C 1.003906 -6.160156 0.847656 -7.242188 0.890625 -8.453125 C 0.910156 -9.304688 1.039062 -10.179688 1.28125 -11.078125 C 1.53125 -11.972656 1.910156 -12.835938 2.421875 -13.671875 C 2.992188 -14.628906 3.703125 -15.410156 4.546875 -16.015625 C 5.390625 -16.628906 6.316406 -17.023438 7.328125 -17.203125 C 8.347656 -17.390625 9.390625 -17.320312 10.453125 -17 C 11.398438 -16.726562 12.320312 -16.378906 13.21875 -15.953125 C 14.125 -15.535156 14.921875 -14.929688 15.609375 -14.140625 C 16.222656 -13.410156 16.695312 -12.601562 17.03125 -11.71875 C 17.363281 -10.832031 17.539062 -9.914062 17.5625 -8.96875 C 17.59375 -8.019531 17.472656 -7.085938 17.203125 -6.171875 C 16.941406 -5.253906 16.519531 -4.421875 15.9375 -3.671875 C 15.75 -3.390625 15.546875 -3.117188 15.328125 -2.859375 C 15.109375 -2.609375 14.875 -2.375 14.625 -2.15625 C 13.644531 -1.28125 12.59375 -0.65625 11.46875 -0.28125 C 10.351562 0.09375 9.132812 0.109375 7.8125 -0.234375 C 6.957031 -0.453125 6.128906 -0.75 5.328125 -1.125 C 4.523438 -1.507812 3.789062 -2.015625 3.125 -2.640625 Z M 4.1875 -12.703125 C 3.800781 -12.015625 3.503906 -11.300781 3.296875 -10.5625 C 3.085938 -9.832031 2.957031 -9.066406 2.90625 -8.265625 C 2.976562 -7.890625 3.039062 -7.507812 3.09375 -7.125 C 3.144531 -6.75 3.234375 -6.382812 3.359375 -6.03125 C 3.546875 -5.488281 3.910156 -4.960938 4.453125 -4.453125 C 4.992188 -3.953125 5.613281 -3.523438 6.3125 -3.171875 C 7.019531 -2.816406 7.734375 -2.5625 8.453125 -2.40625 C 9.171875 -2.257812 9.816406 -2.257812 10.390625 -2.40625 C 11.453125 -2.695312 12.359375 -3.195312 13.109375 -3.90625 C 13.867188 -4.625 14.421875 -5.476562 14.765625 -6.46875 C 15.117188 -7.46875 15.21875 -8.539062 15.0625 -9.6875 C 14.925781 -10.644531 14.570312 -11.453125 14 -12.109375 C 13.4375 -12.765625 12.695312 -13.285156 11.78125 -13.671875 C 11.34375 -13.859375 10.910156 -14.070312 10.484375 -14.3125 C 10.066406 -14.5625 9.644531 -14.796875 9.21875 -15.015625 C 9.050781 -15.085938 8.875 -15.164062 8.6875 -15.25 C 8.507812 -15.34375 8.34375 -15.378906 8.1875 -15.359375 C 6.394531 -15.191406 5.0625 -14.304688 4.1875 -12.703125 Z M 4.1875 -12.703125 "/></g></g></g><g fill="#e7d8d2" fill-opacity="1"><g transform="translate(282.421635, 225.254949)"><g><path d="M 3.125 -2.640625 C 2.3125 -3.398438 1.722656 -4.253906 1.359375 -5.203125 C 1.003906 -6.160156 0.847656 -7.242188 0.890625 -8.453125 C 0.910156 -9.304688 1.039062 -10.179688 1.28125 -11.078125 C 1.53125 -11.972656 1.910156 -12.835938 2.421875 -13.671875 C 2.992188 -14.628906 3.703125 -15.410156 4.546875 -16.015625 C 5.390625 -16.628906 6.316406 -17.023438 7.328125 -17.203125 C 8.347656 -17.390625 9.390625 -17.320312 10.453125 -17 C 11.398438 -16.726562 12.320312 -16.378906 13.21875 -15.953125 C 14.125 -15.535156 14.921875 -14.929688 15.609375 -14.140625 C 16.222656 -13.410156 16.695312 -12.601562 17.03125 -11.71875 C 17.363281 -10.832031 17.539062 -9.914062 17.5625 -8.96875 C 17.59375 -8.019531 17.472656 -7.085938 17.203125 -6.171875 C 16.941406 -5.253906 16.519531 -4.421875 15.9375 -3.671875 C 15.75 -3.390625 15.546875 -3.117188 15.328125 -2.859375 C 15.109375 -2.609375 14.875 -2.375 14.625 -2.15625 C 13.644531 -1.28125 12.59375 -0.65625 11.46875 -0.28125 C 10.351562 0.09375 9.132812 0.109375 7.8125 -0.234375 C 6.957031 -0.453125 6.128906 -0.75 5.328125 -1.125 C 4.523438 -1.507812 3.789062 -2.015625 3.125 -2.640625 Z M 4.1875 -12.703125 C 3.800781 -12.015625 3.503906 -11.300781 3.296875 -10.5625 C 3.085938 -9.832031 2.957031 -9.066406 2.90625 -8.265625 C 2.976562 -7.890625 3.039062 -7.507812 3.09375 -7.125 C 3.144531 -6.75 3.234375 -6.382812 3.359375 -6.03125 C 3.546875 -5.488281 3.910156 -4.960938 4.453125 -4.453125 C 4.992188 -3.953125 5.613281 -3.523438 6.3125 -3.171875 C 7.019531 -2.816406 7.734375 -2.5625 8.453125 -2.40625 C 9.171875 -2.257812 9.816406 -2.257812 10.390625 -2.40625 C 11.453125 -2.695312 12.359375 -3.195312 13.109375 -3.90625 C 13.867188 -4.625 14.421875 -5.476562 14.765625 -6.46875 C 15.117188 -7.46875 15.21875 -8.539062 15.0625 -9.6875 C 14.925781 -10.644531 14.570312 -11.453125 14 -12.109375 C 13.4375 -12.765625 12.695312 -13.285156 11.78125 -13.671875 C 11.34375 -13.859375 10.910156 -14.070312 10.484375 -14.3125 C 10.066406 -14.5625 9.644531 -14.796875 9.21875 -15.015625 C 9.050781 -15.085938 8.875 -15.164062 8.6875 -15.25 C 8.507812 -15.34375 8.34375 -15.378906 8.1875 -15.359375 C 6.394531 -15.191406 5.0625 -14.304688 4.1875 -12.703125 Z M 4.1875 -12.703125 "/></g></g></g><g fill="#e7d8d2" fill-opacity="1"><g transform="translate(300.890086, 225.254949)"><g><path d="M 13.5625 -3.390625 C 13.601562 -3.398438 13.640625 -3.40625 13.671875 -3.40625 C 13.710938 -3.414062 13.753906 -3.421875 13.796875 -3.421875 C 13.835938 -4.484375 13.882812 -5.535156 13.9375 -6.578125 C 13.988281 -7.628906 14.015625 -8.679688 14.015625 -9.734375 C 13.992188 -10.609375 13.941406 -11.472656 13.859375 -12.328125 C 13.785156 -13.191406 13.726562 -14.0625 13.6875 -14.9375 C 13.675781 -15.207031 13.6875 -15.476562 13.71875 -15.75 C 13.757812 -16.03125 13.8125 -16.300781 13.875 -16.5625 C 13.9375 -16.8125 14.054688 -17.003906 14.234375 -17.140625 C 14.410156 -17.285156 14.632812 -17.332031 14.90625 -17.28125 C 15.164062 -17.238281 15.359375 -17.128906 15.484375 -16.953125 C 15.617188 -16.785156 15.679688 -16.570312 15.671875 -16.3125 C 15.660156 -14.820312 15.6875 -13.332031 15.75 -11.84375 C 15.8125 -10.363281 15.847656 -8.882812 15.859375 -7.40625 C 15.878906 -5.925781 15.800781 -4.445312 15.625 -2.96875 C 15.59375 -2.71875 15.566406 -2.460938 15.546875 -2.203125 C 15.523438 -1.941406 15.476562 -1.695312 15.40625 -1.46875 C 15.257812 -0.96875 14.988281 -0.644531 14.59375 -0.5 C 14.207031 -0.351562 13.796875 -0.421875 13.359375 -0.703125 C 13.097656 -0.859375 12.847656 -1.078125 12.609375 -1.359375 C 11.316406 -2.867188 10.019531 -4.382812 8.71875 -5.90625 C 7.425781 -7.425781 6.144531 -8.953125 4.875 -10.484375 C 4.582031 -10.828125 4.300781 -11.191406 4.03125 -11.578125 C 3.757812 -11.960938 3.460938 -12.375 3.140625 -12.8125 C 3.140625 -12.625 3.128906 -12.472656 3.109375 -12.359375 C 3.097656 -12.242188 3.09375 -12.132812 3.09375 -12.03125 C 3.082031 -10.28125 3.066406 -8.535156 3.046875 -6.796875 C 3.023438 -5.054688 3.003906 -3.316406 2.984375 -1.578125 C 2.984375 -1.453125 2.976562 -1.332031 2.96875 -1.21875 C 2.96875 -1.101562 2.960938 -0.988281 2.953125 -0.875 C 2.890625 -0.644531 2.789062 -0.441406 2.65625 -0.265625 C 2.53125 -0.0976562 2.320312 -0.0078125 2.03125 0 C 1.769531 0.0078125 1.554688 -0.0507812 1.390625 -0.1875 C 1.222656 -0.320312 1.109375 -0.515625 1.046875 -0.765625 C 0.984375 -0.984375 0.9375 -1.207031 0.90625 -1.4375 C 0.882812 -1.675781 0.878906 -1.90625 0.890625 -2.125 C 0.984375 -4.144531 1.078125 -6.164062 1.171875 -8.1875 C 1.265625 -10.207031 1.351562 -12.226562 1.4375 -14.25 C 1.457031 -14.539062 1.515625 -14.84375 1.609375 -15.15625 C 1.679688 -15.363281 1.800781 -15.507812 1.96875 -15.59375 C 2.132812 -15.6875 2.316406 -15.675781 2.515625 -15.5625 C 2.828125 -15.382812 3.144531 -15.203125 3.46875 -15.015625 C 3.789062 -14.828125 4.066406 -14.59375 4.296875 -14.3125 C 5.671875 -12.769531 7.019531 -11.210938 8.34375 -9.640625 C 9.675781 -8.078125 11.015625 -6.507812 12.359375 -4.9375 C 12.578125 -4.6875 12.78125 -4.429688 12.96875 -4.171875 C 13.15625 -3.910156 13.351562 -3.648438 13.5625 -3.390625 Z M 13.5625 -3.390625 "/></g></g></g><g fill="#e7d8d2" fill-opacity="1"><g transform="translate(108.516525, 239.204906)"><g><path d="M 3.203125 -1.09375 C 3.535156 -1.09375 3.828125 -1.160156 4.078125 -1.296875 C 4.328125 -1.441406 4.523438 -1.632812 4.671875 -1.875 L 5.71875 -1.359375 C 5.46875 -0.929688 5.125 -0.585938 4.6875 -0.328125 C 4.257812 -0.0664062 3.765625 0.0625 3.203125 0.0625 C 2.765625 0.0625 2.363281 -0.015625 2 -0.171875 C 1.644531 -0.328125 1.335938 -0.546875 1.078125 -0.828125 C 0.816406 -1.109375 0.613281 -1.4375 0.46875 -1.8125 C 0.332031 -2.1875 0.265625 -2.59375 0.265625 -3.03125 C 0.265625 -3.457031 0.332031 -3.859375 0.46875 -4.234375 C 0.613281 -4.609375 0.816406 -4.9375 1.078125 -5.21875 C 1.335938 -5.507812 1.644531 -5.734375 2 -5.890625 C 2.363281 -6.046875 2.765625 -6.125 3.203125 -6.125 C 3.765625 -6.125 4.257812 -5.992188 4.6875 -5.734375 C 5.125 -5.472656 5.46875 -5.128906 5.71875 -4.703125 L 4.671875 -4.1875 C 4.523438 -4.425781 4.328125 -4.613281 4.078125 -4.75 C 3.828125 -4.894531 3.535156 -4.96875 3.203125 -4.96875 C 2.835938 -4.96875 2.519531 -4.878906 2.25 -4.703125 C 1.988281 -4.535156 1.785156 -4.304688 1.640625 -4.015625 C 1.503906 -3.722656 1.4375 -3.394531 1.4375 -3.03125 C 1.4375 -2.664062 1.503906 -2.335938 1.640625 -2.046875 C 1.785156 -1.753906 1.988281 -1.519531 2.25 -1.34375 C 2.519531 -1.175781 2.835938 -1.09375 3.203125 -1.09375 Z M 3.203125 -1.09375 "/></g></g></g><g fill="#e7d8d2" fill-opacity="1"><g transform="translate(118.351306, 239.204906)"><g><path d="M 4.078125 -6.0625 L 5.234375 -6.0625 L 5.234375 0 L 4.078125 0 L 4.078125 -2.484375 L 1.625 -2.484375 L 1.625 0 L 0.484375 0 L 0.484375 -6.0625 L 1.625 -6.0625 L 1.625 -3.578125 L 4.078125 -3.578125 Z M 4.078125 -6.0625 "/></g></g></g><g fill="#e7d8d2" fill-opacity="1"><g transform="translate(128.004124, 239.204906)"><g><path d="M 1.625 -1.09375 L 4.515625 -1.09375 L 4.515625 0 L 0.484375 0 L 0.484375 -6.0625 L 4.453125 -6.0625 L 4.453125 -4.953125 L 1.625 -4.953125 L 1.625 -3.578125 L 4.1875 -3.578125 L 4.1875 -2.484375 L 1.625 -2.484375 Z M 1.625 -1.09375 "/></g></g></g><g fill="#e7d8d2" fill-opacity="1"><g transform="translate(136.807767, 239.204906)"><g><path d="M 3.203125 -1.09375 C 3.535156 -1.09375 3.828125 -1.160156 4.078125 -1.296875 C 4.328125 -1.441406 4.523438 -1.632812 4.671875 -1.875 L 5.71875 -1.359375 C 5.46875 -0.929688 5.125 -0.585938 4.6875 -0.328125 C 4.257812 -0.0664062 3.765625 0.0625 3.203125 0.0625 C 2.765625 0.0625 2.363281 -0.015625 2 -0.171875 C 1.644531 -0.328125 1.335938 -0.546875 1.078125 -0.828125 C 0.816406 -1.109375 0.613281 -1.4375 0.46875 -1.8125 C 0.332031 -2.1875 0.265625 -2.59375 0.265625 -3.03125 C 0.265625 -3.457031 0.332031 -3.859375 0.46875 -4.234375 C 0.613281 -4.609375 0.816406 -4.9375 1.078125 -5.21875 C 1.335938 -5.507812 1.644531 -5.734375 2 -5.890625 C 2.363281 -6.046875 2.765625 -6.125 3.203125 -6.125 C 3.765625 -6.125 4.257812 -5.992188 4.6875 -5.734375 C 5.125 -5.472656 5.46875 -5.128906 5.71875 -4.703125 L 4.671875 -4.1875 C 4.523438 -4.425781 4.328125 -4.613281 4.078125 -4.75 C 3.828125 -4.894531 3.535156 -4.96875 3.203125 -4.96875 C 2.835938 -4.96875 2.519531 -4.878906 2.25 -4.703125 C 1.988281 -4.535156 1.785156 -4.304688 1.640625 -4.015625 C 1.503906 -3.722656 1.4375 -3.394531 1.4375 -3.03125 C 1.4375 -2.664062 1.503906 -2.335938 1.640625 -2.046875 C 1.785156 -1.753906 1.988281 -1.519531 2.25 -1.34375 C 2.519531 -1.175781 2.835938 -1.09375 3.203125 -1.09375 Z M 3.203125 -1.09375 "/></g></g></g><g fill="#e7d8d2" fill-opacity="1"><g transform="translate(146.642549, 239.204906)"><g><path d="M 3.921875 0 L 2.15625 -2.46875 L 1.625 -1.84375 L 1.625 0 L 0.484375 0 L 0.484375 -6.0625 L 1.625 -6.0625 L 1.625 -3.625 L 3.6875 -6.0625 L 5.203125 -6.0625 L 2.9375 -3.375 L 5.328125 0 Z M 3.921875 0 "/></g></g></g><g fill="#e7d8d2" fill-opacity="1"><g transform="translate(156.009414, 239.204906)"><g/></g></g><g fill="#e7d8d2" fill-opacity="1"><g transform="translate(162.213551, 239.204906)"><g><path d="M 3.953125 -3.203125 C 4.222656 -3.078125 4.4375 -2.898438 4.59375 -2.671875 C 4.75 -2.441406 4.828125 -2.171875 4.828125 -1.859375 C 4.828125 -1.503906 4.75 -1.1875 4.59375 -0.90625 C 4.4375 -0.625 4.207031 -0.398438 3.90625 -0.234375 C 3.601562 -0.078125 3.234375 0 2.796875 0 L 0.484375 0 L 0.484375 -6.0625 L 2.640625 -6.0625 C 3.023438 -6.0625 3.351562 -5.984375 3.625 -5.828125 C 3.90625 -5.671875 4.117188 -5.460938 4.265625 -5.203125 C 4.410156 -4.941406 4.484375 -4.648438 4.484375 -4.328125 C 4.484375 -4.109375 4.429688 -3.898438 4.328125 -3.703125 C 4.234375 -3.515625 4.109375 -3.347656 3.953125 -3.203125 Z M 2.65625 -4.953125 L 1.625 -4.953125 L 1.625 -3.71875 L 2.65625 -3.71875 C 2.882812 -3.71875 3.050781 -3.78125 3.15625 -3.90625 C 3.257812 -4.03125 3.3125 -4.171875 3.3125 -4.328125 C 3.3125 -4.503906 3.257812 -4.648438 3.15625 -4.765625 C 3.050781 -4.890625 2.882812 -4.953125 2.65625 -4.953125 Z M 2.796875 -1.09375 C 3.066406 -1.09375 3.269531 -1.164062 3.40625 -1.3125 C 3.539062 -1.457031 3.609375 -1.640625 3.609375 -1.859375 C 3.609375 -2.078125 3.539062 -2.253906 3.40625 -2.390625 C 3.269531 -2.535156 3.066406 -2.609375 2.796875 -2.609375 L 1.625 -2.609375 L 1.625 -1.09375 Z M 2.796875 -1.09375 "/></g></g></g><g fill="#e7d8d2" fill-opacity="1"><g transform="translate(171.242481, 239.204906)"><g><path d="M 4.390625 0 L 3.921875 -1.375 L 1.859375 -1.375 L 1.390625 0 L 0.09375 0 L 2.3125 -6.0625 L 3.484375 -6.0625 L 5.703125 0 Z M 2.25 -2.46875 L 3.53125 -2.46875 L 2.890625 -4.328125 Z M 2.25 -2.46875 "/></g></g></g><g fill="#e7d8d2" fill-opacity="1"><g transform="translate(180.981945, 239.204906)"><g><path d="M 3.203125 -1.09375 C 3.535156 -1.09375 3.828125 -1.160156 4.078125 -1.296875 C 4.328125 -1.441406 4.523438 -1.632812 4.671875 -1.875 L 5.71875 -1.359375 C 5.46875 -0.929688 5.125 -0.585938 4.6875 -0.328125 C 4.257812 -0.0664062 3.765625 0.0625 3.203125 0.0625 C 2.765625 0.0625 2.363281 -0.015625 2 -0.171875 C 1.644531 -0.328125 1.335938 -0.546875 1.078125 -0.828125 C 0.816406 -1.109375 0.613281 -1.4375 0.46875 -1.8125 C 0.332031 -2.1875 0.265625 -2.59375 0.265625 -3.03125 C 0.265625 -3.457031 0.332031 -3.859375 0.46875 -4.234375 C 0.613281 -4.609375 0.816406 -4.9375 1.078125 -5.21875 C 1.335938 -5.507812 1.644531 -5.734375 2 -5.890625 C 2.363281 -6.046875 2.765625 -6.125 3.203125 -6.125 C 3.765625 -6.125 4.257812 -5.992188 4.6875 -5.734375 C 5.125 -5.472656 5.46875 -5.128906 5.71875 -4.703125 L 4.671875 -4.1875 C 4.523438 -4.425781 4.328125 -4.613281 4.078125 -4.75 C 3.828125 -4.894531 3.535156 -4.96875 3.203125 -4.96875 C 2.835938 -4.96875 2.519531 -4.878906 2.25 -4.703125 C 1.988281 -4.535156 1.785156 -4.304688 1.640625 -4.015625 C 1.503906 -3.722656 1.4375 -3.394531 1.4375 -3.03125 C 1.4375 -2.664062 1.503906 -2.335938 1.640625 -2.046875 C 1.785156 -1.753906 1.988281 -1.519531 2.25 -1.34375 C 2.519531 -1.175781 2.835938 -1.09375 3.203125 -1.09375 Z M 3.203125 -1.09375 "/></g></g></g><g fill="#e7d8d2" fill-opacity="1"><g transform="translate(190.816727, 239.204906)"><g><path d="M 3.921875 0 L 2.15625 -2.46875 L 1.625 -1.84375 L 1.625 0 L 0.484375 0 L 0.484375 -6.0625 L 1.625 -6.0625 L 1.625 -3.625 L 3.6875 -6.0625 L 5.203125 -6.0625 L 2.9375 -3.375 L 5.328125 0 Z M 3.921875 0 "/></g></g></g><g fill="#e7d8d2" fill-opacity="1"><g transform="translate(200.183592, 239.204906)"><g/></g></g><g fill="#e7d8d2" fill-opacity="1"><g transform="translate(206.38773, 239.204906)"><g><path d="M 1.625 -1.09375 L 4.125 -1.09375 L 4.125 0 L 0.484375 0 L 0.484375 -6.0625 L 1.625 -6.0625 Z M 1.625 -1.09375 "/></g></g></g><g fill="#e7d8d2" fill-opacity="1"><g transform="translate(214.714797, 239.204906)"><g><path d="M 4.390625 0 L 3.921875 -1.375 L 1.859375 -1.375 L 1.390625 0 L 0.09375 0 L 2.3125 -6.0625 L 3.484375 -6.0625 L 5.703125 0 Z M 2.25 -2.46875 L 3.53125 -2.46875 L 2.890625 -4.328125 Z M 2.25 -2.46875 "/></g></g></g><g fill="#e7d8d2" fill-opacity="1"><g transform="translate(224.454261, 239.204906)"><g><path d="M 4.671875 -6.0625 L 4.671875 -4.953125 L 3.046875 -4.953125 L 3.046875 0 L 1.890625 0 L 1.890625 -4.953125 L 0.265625 -4.953125 L 0.265625 -6.0625 Z M 4.671875 -6.0625 "/></g></g></g><g fill="#e7d8d2" fill-opacity="1"><g transform="translate(233.33589, 239.204906)"><g><path d="M 1.625 -1.09375 L 4.515625 -1.09375 L 4.515625 0 L 0.484375 0 L 0.484375 -6.0625 L 4.453125 -6.0625 L 4.453125 -4.953125 L 1.625 -4.953125 L 1.625 -3.578125 L 4.1875 -3.578125 L 4.1875 -2.484375 L 1.625 -2.484375 Z M 1.625 -1.09375 "/></g></g></g><g fill="#e7d8d2" fill-opacity="1"><g transform="translate(242.139534, 239.204906)"><g><path d="M 3.671875 0 L 2.46875 -2.078125 L 1.625 -2.078125 L 1.625 0 L 0.484375 0 L 0.484375 -6.0625 L 2.71875 -6.0625 C 3.175781 -6.0625 3.5625 -5.972656 3.875 -5.796875 C 4.1875 -5.617188 4.421875 -5.378906 4.578125 -5.078125 C 4.742188 -4.773438 4.828125 -4.441406 4.828125 -4.078125 C 4.828125 -3.671875 4.726562 -3.300781 4.53125 -2.96875 C 4.332031 -2.644531 4.046875 -2.40625 3.671875 -2.25 L 4.984375 0 Z M 1.625 -4.953125 L 1.625 -3.1875 L 2.703125 -3.1875 C 2.984375 -3.1875 3.207031 -3.269531 3.375 -3.4375 C 3.550781 -3.601562 3.640625 -3.816406 3.640625 -4.078125 C 3.640625 -4.335938 3.550781 -4.546875 3.375 -4.703125 C 3.207031 -4.867188 2.984375 -4.953125 2.703125 -4.953125 Z M 1.625 -4.953125 "/></g></g></g><g fill="#e7d8d2" fill-opacity="1"><g transform="translate(251.194467, 239.204906)"><g/></g></g><g fill="#e7d8d2" fill-opacity="1"><g transform="translate(257.398604, 239.204906)"><g><path d="M 1.046875 -3.203125 C 0.878906 -3.203125 0.734375 -3.265625 0.609375 -3.390625 C 0.492188 -3.515625 0.4375 -3.660156 0.4375 -3.828125 C 0.4375 -3.992188 0.492188 -4.132812 0.609375 -4.25 C 0.734375 -4.375 0.878906 -4.4375 1.046875 -4.4375 C 1.210938 -4.4375 1.351562 -4.375 1.46875 -4.25 C 1.59375 -4.132812 1.65625 -3.992188 1.65625 -3.828125 C 1.65625 -3.660156 1.59375 -3.515625 1.46875 -3.390625 C 1.351562 -3.265625 1.210938 -3.203125 1.046875 -3.203125 Z M 1.046875 -1.09375 C 1.210938 -1.09375 1.351562 -1.03125 1.46875 -0.90625 C 1.59375 -0.789062 1.65625 -0.648438 1.65625 -0.484375 C 1.65625 -0.316406 1.59375 -0.171875 1.46875 -0.046875 C 1.351562 0.0664062 1.210938 0.125 1.046875 0.125 C 0.878906 0.125 0.734375 0.0664062 0.609375 -0.046875 C 0.492188 -0.171875 0.4375 -0.316406 0.4375 -0.484375 C 0.4375 -0.648438 0.492188 -0.789062 0.609375 -0.90625 C 0.734375 -1.03125 0.878906 -1.09375 1.046875 -1.09375 Z M 1.046875 -1.09375 "/></g></g></g><g fill="#e7d8d2" fill-opacity="1"><g transform="translate(263.698058, 239.204906)"><g><path d="M 2.34375 -2.640625 C 2.363281 -2.117188 2.320312 -1.601562 2.21875 -1.09375 C 2.113281 -0.582031 1.953125 -0.0976562 1.734375 0.359375 C 1.523438 0.816406 1.273438 1.226562 0.984375 1.59375 L 0.25 1 C 0.539062 0.625 0.769531 0.207031 0.9375 -0.25 C 1.113281 -0.707031 1.226562 -1.191406 1.28125 -1.703125 C 1.332031 -2.222656 1.320312 -2.738281 1.25 -3.25 C 1.175781 -3.757812 1.039062 -4.242188 0.84375 -4.703125 C 0.65625 -5.171875 0.40625 -5.59375 0.09375 -5.96875 L 0.8125 -6.578125 C 1.25 -6.066406 1.609375 -5.472656 1.890625 -4.796875 C 2.171875 -4.117188 2.320312 -3.398438 2.34375 -2.640625 Z M 2.34375 -2.640625 "/></g></g></g><g clip-path="url(#7554f1ae93)"><path fill="#c5c8be" d="M 206.269531 84.117188 C 206.160156 84.542969 206.042969 84.96875 205.9375 85.394531 C 205.265625 88.085938 205.359375 90.917969 205.039062 93.660156 C 204.347656 99.539062 203.429688 105.394531 202.71875 111.273438 C 202.007812 117.183594 201.03125 123.058594 199.800781 128.878906 C 199.578125 129.9375 199.347656 130.996094 199.117188 132.054688 C 199.6875 127.394531 200.054688 122.722656 200.660156 118.046875 C 201.589844 110.886719 203.011719 103.8125 203.429688 96.589844 C 203.636719 93.074219 203.59375 89.554688 203.660156 86.039062 C 203.683594 84.839844 203.71875 83.632812 203.742188 82.425781 C 204.65625 82.726562 205.507812 83.261719 206.269531 84.117188 Z M 207.3125 85.585938 C 208.332031 87.394531 208.675781 89.4375 209.492188 91.316406 C 209.167969 92.386719 208.835938 93.457031 208.519531 94.53125 C 206.773438 100.476562 204.738281 106.375 203.253906 112.394531 C 203.988281 106.757812 204.683594 101.113281 205.421875 95.476562 C 205.808594 92.542969 205.839844 89.582031 206.230469 86.652344 C 206.328125 85.941406 206.460938 85.230469 206.605469 84.519531 C 206.851562 84.839844 207.089844 85.1875 207.3125 85.585938 Z M 214.125 102.085938 C 211.832031 107.398438 209.765625 112.765625 208.179688 118.335938 C 207.425781 120.988281 206.886719 123.691406 205.949219 126.289062 C 205.019531 128.871094 203.800781 131.347656 202.726562 133.871094 C 201.65625 136.386719 200.644531 138.929688 199.59375 141.453125 C 199.332031 142.09375 199.0625 142.71875 198.796875 143.34375 C 198.890625 143.039062 198.984375 142.738281 199.070312 142.433594 C 199.847656 139.78125 200.535156 137.117188 201.523438 134.527344 C 202.503906 131.960938 203.625 129.445312 204.59375 126.871094 C 205.554688 124.3125 206.230469 121.65625 206.972656 119.027344 C 208.453125 113.753906 210.160156 108.550781 211.804688 103.324219 C 212.640625 100.671875 213.429688 98.039062 214.546875 95.488281 C 214.683594 95.171875 214.828125 94.859375 214.972656 94.542969 C 215.84375 94.667969 216.679688 94.828125 217.363281 95.15625 C 216.136719 97.398438 215.136719 99.746094 214.125 102.085938 Z M 218.761719 96.671875 C 219.023438 97.425781 219.488281 97.976562 220.386719 98.558594 C 219.167969 101 217.746094 103.269531 216.367188 105.621094 C 213.6875 110.199219 211.648438 115.125 210.082031 120.1875 C 209.292969 122.742188 208.691406 125.339844 207.582031 127.78125 C 206.417969 130.335938 204.847656 132.703125 203.382812 135.085938 C 202.769531 136.078125 202.25 137.105469 201.765625 138.148438 C 202.234375 136.988281 202.703125 135.828125 203.175781 134.667969 C 204.21875 132.125 205.414062 129.644531 206.417969 127.082031 C 207.492188 124.332031 208.054688 121.421875 208.847656 118.578125 C 210.34375 113.199219 212.351562 108.007812 214.527344 102.871094 C 215.585938 100.371094 216.640625 97.882812 217.886719 95.472656 C 218.277344 95.761719 218.582031 96.148438 218.761719 96.671875 Z M 222.121094 100.746094 C 220.859375 103.351562 219.527344 105.921875 218.058594 108.398438 C 215.78125 112.238281 213.003906 116.027344 211.785156 120.375 C 210.484375 125.039062 208.257812 129.460938 205.738281 133.574219 C 205.035156 134.726562 204.207031 135.796875 203.398438 136.875 C 203.785156 136.121094 204.199219 135.371094 204.65625 134.628906 C 205.878906 132.652344 207.089844 130.667969 208.132812 128.585938 C 209.328125 126.1875 209.945312 123.59375 210.710938 121.039062 C 212.265625 115.824219 214.355469 110.828125 217.015625 106.074219 C 218.171875 104.011719 219.449219 102.042969 220.484375 99.910156 C 220.644531 99.582031 220.796875 99.246094 220.949219 98.914062 C 221.515625 99.289062 221.886719 99.945312 222.121094 100.746094 Z M 222.457031 105.515625 C 221.214844 107.046875 220.117188 108.628906 219.152344 110.359375 C 217.125 113.976562 215.242188 117.71875 213.527344 121.496094 C 211.683594 125.566406 210.101562 129.847656 207.753906 133.664062 C 207.636719 133.859375 207.503906 134.046875 207.378906 134.238281 C 206.207031 135.351562 205.046875 136.472656 204.003906 137.679688 C 203.613281 138.136719 203.214844 138.59375 202.820312 139.054688 C 202.867188 138.976562 202.910156 138.898438 202.957031 138.824219 C 204.152344 137.023438 205.527344 135.367188 206.652344 133.515625 C 209 129.640625 210.972656 125.503906 212.320312 121.171875 C 213.769531 116.488281 216.464844 112.5 218.929688 108.300781 C 220.214844 106.113281 221.304688 103.84375 222.308594 101.53125 C 222.535156 102.796875 222.519531 104.269531 222.457031 105.515625 Z M 222.328125 107.414062 C 222.316406 107.597656 222.339844 107.757812 222.386719 107.902344 C 222.347656 108.371094 222.296875 108.839844 222.230469 109.3125 C 222.21875 109.414062 222.199219 109.511719 222.179688 109.613281 C 221.34375 110.664062 220.535156 111.742188 219.792969 112.894531 C 218.152344 115.4375 217 118.269531 215.507812 120.902344 C 214.046875 123.484375 212.925781 126.320312 211.65625 129.003906 C 211.285156 129.789062 210.855469 130.535156 210.402344 131.265625 C 210.179688 131.5 209.953125 131.734375 209.726562 131.964844 C 211.191406 129.207031 212.347656 126.25 213.597656 123.421875 C 215.347656 119.457031 217.339844 115.621094 219.3125 111.761719 C 220.226562 109.976562 221.21875 108.285156 222.382812 106.667969 C 222.363281 106.941406 222.34375 107.195312 222.328125 107.414062 Z M 219.351562 115.605469 C 217.574219 119.859375 215.605469 124.03125 213.105469 127.910156 C 212.953125 128.148438 212.792969 128.378906 212.628906 128.609375 C 213.78125 126.175781 214.792969 123.664062 216.078125 121.300781 C 217.519531 118.640625 218.757812 115.847656 220.320312 113.261719 C 220.78125 112.496094 221.273438 111.742188 221.78125 110.992188 C 221.140625 112.617188 220.046875 113.941406 219.351562 115.605469 Z M 213.253906 130.207031 C 215.1875 127.589844 216.964844 124.863281 218.429688 121.921875 C 219.289062 120.195312 220.058594 118.515625 221.144531 116.96875 C 222.3125 116.371094 223.324219 115.839844 224.390625 115.59375 C 224.191406 115.941406 224 116.289062 223.816406 116.640625 C 222.390625 119.347656 220.453125 121.679688 218.546875 124.058594 C 216.859375 126.160156 215.128906 128.261719 213.253906 130.207031 Z M 225.109375 115.472656 C 225.960938 115.386719 226.875 115.503906 227.9375 115.933594 C 227.953125 115.9375 227.964844 115.945312 227.980469 115.949219 C 227.078125 117.152344 226.066406 118.273438 225.042969 119.378906 C 222.496094 122.121094 219.972656 124.855469 217.234375 127.410156 C 216.394531 128.1875 215.546875 128.960938 214.699219 129.726562 C 215.988281 128.328125 217.222656 126.875 218.425781 125.390625 C 220.332031 123.035156 222.332031 120.660156 223.796875 118.003906 C 224.257812 117.171875 224.679688 116.320312 225.109375 115.472656 Z M 237.054688 118.804688 C 237.992188 118.816406 238.464844 119.414062 238.671875 120.25 C 238.476562 120.300781 238.25 120.324219 238.070312 120.382812 C 236.917969 120.742188 235.871094 121.257812 234.796875 121.8125 C 232.441406 123.03125 230.105469 124.289062 227.757812 125.523438 C 225.550781 126.683594 223.273438 127.722656 221.105469 128.957031 C 219.140625 130.078125 217.539062 131.6875 215.664062 132.941406 C 213.644531 134.300781 211.785156 135.949219 209.886719 137.476562 C 209.804688 137.539062 209.726562 137.597656 209.644531 137.664062 C 210.507812 136.667969 211.371094 135.671875 212.363281 134.835938 C 215.160156 132.46875 218.09375 130.226562 221.050781 128.058594 C 225.652344 124.679688 230.859375 122.132812 235.5 118.8125 C 236.019531 118.820312 236.550781 118.796875 237.054688 118.804688 Z M 231.113281 117.503906 C 229.640625 118.871094 228.199219 120.183594 226.578125 121.425781 C 224.660156 122.894531 222.828125 124.480469 220.925781 125.976562 C 218.984375 127.5 217.253906 129.285156 215.300781 130.796875 C 213.425781 132.253906 211.667969 133.882812 209.941406 135.515625 C 209.292969 136.128906 208.648438 136.75 208.003906 137.375 C 208.222656 137.109375 208.441406 136.851562 208.675781 136.601562 C 211.386719 133.703125 214.460938 131.140625 217.375 128.460938 C 220.167969 125.890625 222.710938 123.125 225.257812 120.316406 C 226.445312 119.007812 227.628906 117.6875 228.652344 116.246094 C 229.503906 116.636719 230.300781 117.085938 231.113281 117.503906 Z M 234.371094 118.71875 C 234.53125 118.75 234.695312 118.765625 234.859375 118.777344 C 230.464844 121.628906 225.730469 123.988281 221.425781 126.984375 C 221.777344 126.703125 222.128906 126.414062 222.476562 126.132812 C 224.234375 124.734375 225.929688 123.265625 227.707031 121.894531 C 229.28125 120.671875 230.769531 119.488281 231.996094 117.929688 C 232.742188 118.269531 233.515625 118.558594 234.371094 118.71875 Z M 238.597656 123.683594 C 235.816406 125.285156 232.894531 126.640625 230.070312 128.179688 C 226.257812 130.253906 222.21875 131.851562 218.457031 134.03125 C 214.863281 136.113281 211.480469 138.546875 208.050781 140.882812 C 206.945312 141.632812 205.855469 142.40625 204.789062 143.203125 C 206.601562 141.394531 208.671875 139.996094 210.675781 138.414062 C 212.597656 136.898438 214.449219 135.277344 216.453125 133.878906 C 218.511719 132.441406 220.316406 130.753906 222.527344 129.539062 C 224.738281 128.324219 227.03125 127.257812 229.253906 126.074219 C 231.605469 124.820312 233.957031 123.574219 236.308594 122.332031 C 237.117188 121.90625 237.949219 121.574219 238.804688 121.277344 C 238.832031 122.070312 238.730469 122.9375 238.597656 123.683594 Z M 238.226562 125.421875 C 238.039062 126.207031 237.773438 126.964844 237.484375 127.710938 C 236.648438 128.25 235.304688 128.585938 234.488281 128.972656 C 233.273438 129.542969 232.074219 130.140625 230.875 130.734375 C 228.234375 132.042969 225.695312 133.558594 223.109375 134.976562 C 218.148438 137.699219 212.945312 139.902344 207.917969 142.496094 C 206.710938 143.121094 205.507812 143.824219 204.328125 144.589844 C 205.691406 143.492188 207.136719 142.515625 208.589844 141.523438 C 212.253906 139.011719 215.847656 136.390625 219.695312 134.15625 C 223.445312 131.976562 227.476562 130.316406 231.269531 128.191406 C 233.65625 126.851562 236.136719 125.675781 238.484375 124.277344 C 238.382812 124.777344 238.28125 125.1875 238.226562 125.421875 Z M 236.300781 130.871094 C 233.25 133.113281 229.570312 134.714844 226.203125 136.066406 C 220.96875 138.164062 215.804688 140.335938 210.636719 142.601562 C 209.632812 143.039062 208.65625 143.394531 207.710938 143.785156 C 208.582031 143.308594 209.46875 142.855469 210.363281 142.414062 C 215.300781 139.980469 220.300781 137.738281 225.121094 135.066406 C 227.515625 133.738281 229.878906 132.382812 232.332031 131.160156 C 233.535156 130.5625 234.742188 129.972656 235.953125 129.382812 C 236.253906 129.234375 236.628906 129.09375 237 128.933594 C 236.746094 129.574219 236.5 130.214844 236.300781 130.871094 Z M 236.042969 131.804688 C 235.863281 132.617188 235.769531 133.378906 235.765625 134.109375 C 234.296875 135.367188 232.25 136.230469 230.484375 136.90625 C 228.089844 137.820312 225.6875 138.710938 223.289062 139.609375 C 220.90625 140.5 218.5625 141.480469 216.179688 142.359375 C 213.949219 143.1875 211.601562 143.664062 209.351562 144.433594 C 207.476562 145.074219 205.761719 145.933594 204.140625 146.929688 C 205.144531 146.070312 206.160156 145.238281 207.390625 144.652344 C 209.742188 143.535156 212.25 142.726562 214.625 141.636719 C 219.359375 139.464844 224.246094 137.710938 229.011719 135.613281 C 231.261719 134.625 233.851562 133.394531 236.046875 131.796875 C 236.046875 131.800781 236.042969 131.804688 236.042969 131.804688 Z M 236.375 137.414062 C 234.144531 138.777344 231.761719 139.875 229.207031 140.476562 C 227.535156 140.867188 225.820312 141.023438 224.144531 141.386719 C 222.214844 141.804688 220.339844 142.457031 218.433594 142.96875 C 217.882812 143.117188 217.339844 143.25 216.792969 143.382812 C 216.921875 143.335938 217.054688 143.300781 217.183594 143.253906 C 219.578125 142.363281 221.941406 141.371094 224.332031 140.464844 C 226.722656 139.554688 229.125 138.65625 231.5 137.703125 C 232.949219 137.125 234.582031 136.277344 235.824219 135.195312 C 235.910156 135.957031 236.101562 136.691406 236.375 137.414062 Z M 237.875 140.226562 C 237.464844 140.488281 237.074219 140.789062 236.679688 141.078125 C 235.609375 141.867188 234.402344 142.410156 233.160156 142.851562 C 230.675781 143.730469 228.003906 143.671875 225.414062 143.800781 C 222.703125 143.9375 220.015625 143.757812 217.335938 144.230469 C 214.855469 144.671875 212.425781 145.507812 210.023438 146.246094 C 208.886719 146.589844 207.761719 146.980469 206.660156 147.421875 C 207.609375 146.96875 208.585938 146.566406 209.527344 146.15625 C 213.078125 144.609375 216.929688 144.148438 220.617188 143.054688 C 222.332031 142.546875 224.042969 142.015625 225.816406 141.75 C 227.511719 141.496094 229.21875 141.214844 230.859375 140.707031 C 232.949219 140.0625 234.808594 139.0625 236.566406 137.871094 C 236.90625 138.65625 237.339844 139.433594 237.875 140.226562 Z M 239.269531 142.183594 C 238.65625 142.582031 238.039062 142.96875 237.390625 143.304688 C 235.777344 144.136719 233.878906 144.480469 232.109375 144.800781 C 230.410156 145.105469 228.695312 145.308594 226.96875 145.265625 C 225.097656 145.21875 223.246094 144.953125 221.367188 145.011719 C 218.464844 145.101562 215.46875 145.902344 212.605469 146.617188 C 214.394531 146.066406 216.207031 145.5625 218.042969 145.230469 C 220.800781 144.730469 223.769531 144.910156 226.570312 144.820312 C 228.757812 144.75 231.011719 144.664062 233.105469 143.957031 C 235.179688 143.253906 236.738281 142.230469 238.289062 140.820312 C 238.617188 141.277344 238.953125 141.726562 239.269531 142.183594 Z M 240.554688 144.519531 C 239.023438 146.191406 235.710938 146.425781 233.597656 146.59375 C 231.097656 146.796875 228.605469 146.902344 226.105469 146.644531 C 224.074219 146.4375 222.144531 146.285156 220.105469 146.457031 C 217.824219 146.648438 215.570312 147.105469 213.296875 147.367188 C 212.789062 147.425781 212.285156 147.492188 211.777344 147.566406 C 211.816406 147.554688 211.855469 147.546875 211.894531 147.535156 C 215.691406 146.578125 219.617188 145.460938 223.5625 145.65625 C 226.917969 145.820312 229.929688 145.859375 233.25 145.203125 C 234.75 144.90625 236.246094 144.480469 237.632812 143.835938 C 238.324219 143.515625 238.945312 143.066406 239.542969 142.585938 C 239.945312 143.191406 240.296875 143.824219 240.554688 144.519531 Z M 240.808594 145.367188 C 240.828125 145.453125 240.839844 145.539062 240.851562 145.625 C 239.535156 146.65625 238.195312 147.617188 236.542969 148.296875 C 233.699219 149.472656 230.613281 149.523438 227.597656 149.207031 C 224.761719 148.910156 221.972656 148.269531 219.125 148.0625 C 218.15625 147.996094 217.199219 147.988281 216.246094 148.027344 C 218.234375 147.726562 220.214844 147.421875 222.230469 147.371094 C 224.769531 147.3125 227.269531 147.898438 229.824219 147.820312 C 232.015625 147.75 234.238281 147.597656 236.390625 147.167969 C 237.800781 146.886719 239.800781 146.5 240.796875 145.316406 C 240.800781 145.332031 240.808594 145.351562 240.808594 145.367188 Z M 233.042969 151.328125 C 227.632812 152.84375 223.085938 150.71875 217.925781 149.414062 C 216.503906 149.054688 215.101562 148.828125 213.707031 148.726562 C 216.007812 148.535156 218.34375 148.582031 220.625 148.835938 C 223.582031 149.171875 226.472656 149.878906 229.453125 150.066406 C 233.261719 150.3125 237.601562 149.253906 240.761719 146.835938 C 239.945312 149.5 235.171875 150.730469 233.042969 151.328125 Z M 194.632812 139.152344 C 194.574219 139.554688 194.507812 139.957031 194.4375 140.355469 C 194.488281 139.960938 194.535156 139.566406 194.582031 139.167969 C 194.597656 139.164062 194.617188 139.160156 194.632812 139.152344 Z M 192.648438 144.847656 C 192.730469 143.722656 192.808594 142.601562 192.875 141.476562 C 193.34375 133.769531 193.34375 126 193.027344 118.289062 C 192.867188 114.40625 193.277344 110.632812 193.371094 106.765625 C 193.460938 103.03125 192.847656 99.292969 192.082031 95.648438 C 191.164062 91.289062 189.839844 87.121094 188.164062 83.074219 C 188.167969 83.074219 188.167969 83.074219 188.167969 83.078125 C 188.726562 83.328125 189.304688 83.488281 189.898438 83.582031 C 191.394531 88.632812 192.765625 93.769531 193.441406 98.917969 C 193.933594 102.683594 193.898438 106.496094 193.875 110.28125 C 193.851562 114.339844 194.191406 118.355469 194.273438 122.40625 C 194.355469 126.238281 194.246094 130.011719 193.792969 133.816406 C 193.597656 135.449219 193.378906 137.109375 193.453125 138.753906 C 193.453125 138.816406 193.464844 138.878906 193.46875 138.945312 C 193.292969 140.476562 193.101562 142.007812 192.867188 143.53125 C 192.796875 143.972656 192.726562 144.410156 192.648438 144.847656 Z M 191.695312 143.265625 C 191.71875 139.339844 191.660156 135.410156 191.695312 131.480469 C 191.722656 127.769531 191.882812 124.09375 191.613281 120.390625 C 191.074219 112.960938 189.84375 105.4375 188.28125 98.15625 C 187.042969 92.378906 184.898438 86.800781 182.242188 81.507812 C 182.644531 81.148438 183.089844 80.832031 183.554688 80.628906 C 184.039062 81.652344 184.503906 82.6875 184.871094 83.761719 C 186.324219 88 187.972656 92.230469 189.066406 96.578125 C 190.085938 100.640625 190.628906 104.820312 191.023438 108.988281 C 191.355469 112.546875 191.875 116.074219 192.253906 119.621094 C 192.507812 127.066406 192.472656 134.546875 192.019531 141.980469 C 191.921875 143.628906 191.796875 145.273438 191.660156 146.921875 C 191.671875 145.703125 191.6875 144.484375 191.695312 143.265625 Z M 190.074219 150.84375 C 189.988281 148.597656 189.917969 146.351562 189.847656 144.105469 C 189.648438 137.898438 188.425781 131.84375 188.011719 125.65625 C 187.433594 117.164062 185.09375 109.027344 181.503906 101.410156 C 181.636719 101.28125 181.746094 101.132812 181.832031 100.972656 C 182.980469 98.726562 182.242188 95.988281 181.53125 93.699219 C 180.542969 90.5625 179.066406 88.242188 179.871094 85.332031 C 181.738281 90.140625 183.753906 94.914062 184.941406 99.933594 C 185.734375 103.261719 186.164062 106.667969 186.886719 110.011719 C 187.636719 113.46875 188.40625 116.824219 188.773438 120.351562 C 189.523438 127.578125 190.035156 134.925781 190.132812 142.1875 C 190.171875 145.070312 190.136719 147.960938 190.074219 150.84375 Z M 188 147.5625 C 187.492188 144.496094 187.152344 141.398438 186.660156 138.332031 C 186.160156 135.28125 185.292969 132.269531 184.53125 129.273438 C 183.824219 126.527344 183.132812 123.800781 182.632812 121.007812 C 182.152344 118.316406 181.726562 115.589844 180.890625 112.980469 C 179.988281 110.160156 178.75 107.417969 177.632812 104.679688 C 177.574219 104.542969 177.515625 104.40625 177.460938 104.265625 C 177.855469 103.601562 178.363281 103.027344 179.039062 102.613281 C 180.355469 105.714844 181.667969 108.8125 182.582031 112.050781 C 183.359375 114.816406 183.816406 117.675781 184.351562 120.496094 C 184.902344 123.425781 185.570312 126.332031 186.050781 129.277344 C 187.046875 135.355469 187.832031 141.496094 188.429688 147.625 C 188.59375 149.261719 188.78125 150.894531 188.976562 152.53125 C 188.648438 150.875 188.277344 149.226562 188 147.5625 Z M 184.414062 147.09375 C 183.753906 144.074219 182.777344 141.101562 181.417969 138.40625 C 179.179688 133.960938 176.40625 129.800781 173.160156 126.027344 C 169.855469 122.1875 165.996094 118.695312 161.925781 115.679688 C 159.429688 113.832031 156.75 112.308594 154.015625 110.882812 C 155.167969 110.839844 156.210938 110.648438 156.777344 110.03125 C 156.875 109.921875 156.964844 109.816406 157.054688 109.710938 C 158.808594 110.890625 160.609375 111.980469 162.417969 113.097656 C 164.714844 114.519531 166.652344 116.300781 168.460938 118.296875 C 172.164062 122.375 175.4375 126.722656 178.253906 131.457031 C 181.039062 136.136719 183.035156 140.847656 184.523438 146.085938 C 185.070312 147.996094 185.574219 149.910156 185.996094 151.851562 C 185.46875 150.265625 184.941406 148.679688 184.414062 147.09375 Z M 194.726562 157.117188 C 194.917969 156.6875 195.171875 156.269531 195.46875 155.863281 C 195.214844 156.277344 194.96875 156.695312 194.726562 157.117188 Z M 147.535156 142.585938 C 144.351562 143.222656 141.230469 143.375 138 143.058594 C 136.890625 142.953125 135.789062 142.78125 134.691406 142.597656 C 134.417969 142.265625 134.175781 141.917969 133.957031 141.550781 C 134.820312 141.78125 135.707031 141.957031 136.628906 142.039062 C 139.988281 142.332031 143.460938 141.796875 146.792969 141.425781 C 150.519531 141.007812 154.238281 140.570312 157.996094 140.558594 C 158.734375 140.558594 159.453125 140.605469 160.164062 140.675781 C 155.929688 140.53125 151.726562 141.746094 147.535156 142.585938 Z M 153.5 142.707031 C 150.316406 143.398438 147.222656 144.523438 144.003906 145.03125 C 141.269531 145.464844 138.65625 145.382812 136.207031 143.921875 C 135.867188 143.714844 135.574219 143.480469 135.300781 143.234375 C 135.609375 143.285156 135.917969 143.339844 136.226562 143.386719 C 139.367188 143.90625 142.460938 144.019531 145.617188 143.589844 C 148.664062 143.175781 151.644531 142.355469 154.667969 141.792969 C 156.417969 141.46875 158.128906 141.351562 159.910156 141.460938 C 159.964844 141.464844 160.023438 141.472656 160.082031 141.476562 C 157.933594 141.746094 155.753906 142.214844 153.5 142.707031 Z M 133.4375 138.605469 C 136.996094 138.917969 140.585938 138.828125 144.183594 138.703125 C 147.308594 138.597656 150.429688 138.519531 153.550781 138.695312 C 155.425781 138.796875 157.203125 139.179688 158.980469 139.605469 C 155.765625 139.507812 152.503906 139.839844 149.46875 140.167969 C 145.910156 140.550781 142.371094 141.027344 138.792969 141.207031 C 136.929688 141.300781 135.199219 141.03125 133.507812 140.597656 C 133.410156 139.957031 133.386719 139.285156 133.4375 138.605469 Z M 133.6875 137.03125 C 135.519531 136.445312 137.570312 136.035156 139.480469 136.066406 C 141.960938 136.101562 144.429688 136.703125 146.886719 137.015625 C 149.058594 137.289062 151.214844 137.480469 153.347656 137.917969 C 150.902344 137.804688 148.449219 137.890625 146.175781 137.964844 C 141.957031 138.101562 137.707031 138.324219 133.492188 138.089844 C 133.539062 137.734375 133.601562 137.382812 133.6875 137.03125 Z M 134.863281 134.195312 C 137.253906 134.1875 139.644531 134.113281 142.03125 134.230469 C 146.707031 134.457031 151.257812 135.167969 155.804688 136.269531 C 160.226562 137.339844 164.542969 138.859375 168.683594 140.753906 C 170.789062 141.71875 172.828125 142.8125 174.75 144.113281 C 175.542969 144.648438 176.257812 145.253906 176.941406 145.886719 C 172.792969 142.960938 167.875 140.335938 162.964844 139.128906 C 157.671875 137.832031 152.425781 136.488281 146.988281 135.988281 C 142.527344 135.578125 138.207031 134.390625 133.945312 136.128906 C 134.179688 135.449219 134.484375 134.796875 134.863281 134.195312 Z M 137.066406 131.964844 C 139.117188 132.117188 141.191406 132.019531 143.246094 132.269531 C 145.71875 132.570312 148.195312 132.859375 150.65625 133.253906 C 156.105469 134.121094 161.011719 136.113281 165.910156 138.585938 C 166.429688 138.851562 166.953125 139.117188 167.476562 139.382812 C 164.132812 137.945312 160.660156 136.796875 157.144531 135.875 C 152.757812 134.726562 148.308594 133.972656 143.785156 133.671875 C 140.933594 133.484375 138.082031 133.582031 135.230469 133.667969 C 135.738281 132.988281 136.351562 132.40625 137.066406 131.964844 Z M 139.730469 130.203125 C 142.671875 130.550781 145.628906 130.796875 148.566406 131.164062 C 153.519531 131.78125 158.195312 133.113281 162.765625 135.109375 C 167.347656 137.113281 171.613281 139.765625 175.625 142.742188 C 177.605469 144.210938 179.417969 145.699219 180.769531 147.792969 C 180.941406 148.0625 181.109375 148.335938 181.277344 148.609375 C 180.808594 147.933594 180.332031 147.265625 179.734375 146.691406 C 177.957031 144.96875 175.972656 143.292969 173.941406 141.875 C 171.722656 140.328125 169.183594 139.164062 166.777344 137.9375 C 161.996094 135.5 157.195312 133.5 151.898438 132.523438 C 149.242188 132.035156 146.550781 131.804688 143.871094 131.511719 C 142.054688 131.316406 140.085938 131.15625 138.191406 131.277344 C 138.753906 130.929688 139.269531 130.589844 139.730469 130.203125 Z M 140.808594 129.058594 C 142.570312 129.09375 144.332031 128.796875 146.109375 128.832031 C 148.832031 128.890625 151.574219 129.222656 154.207031 129.914062 C 156.683594 130.5625 159.046875 131.621094 161.425781 132.542969 C 164.078125 133.574219 166.609375 134.535156 168.941406 136.21875 C 171.070312 137.753906 173.0625 139.453125 174.976562 141.246094 C 175.164062 141.421875 175.359375 141.59375 175.554688 141.761719 C 171.914062 139.160156 168.121094 136.832031 164.054688 134.9375 C 159.488281 132.804688 154.726562 131.40625 149.738281 130.691406 C 146.578125 130.242188 143.394531 129.996094 140.207031 129.757812 C 140.417969 129.542969 140.621094 129.3125 140.808594 129.058594 Z M 141.601562 127.65625 C 141.75 127.308594 141.863281 126.910156 141.949219 126.480469 C 143.785156 126.667969 145.632812 126.78125 147.4375 126.957031 C 151.976562 127.398438 156.160156 128.636719 160.339844 130.421875 C 163.625 131.820312 166.746094 133.566406 169.65625 135.617188 C 169.652344 135.621094 169.652344 135.625 169.648438 135.625 C 167.683594 134.207031 165.628906 133.183594 163.355469 132.3125 C 160.601562 131.261719 157.871094 130.109375 155.042969 129.25 C 152.535156 128.484375 149.898438 128.195312 147.285156 128.058594 C 146.15625 128 145.027344 128.027344 143.902344 128.097656 C 143 128.15625 142.09375 128.351562 141.1875 128.476562 C 141.335938 128.226562 141.472656 127.953125 141.601562 127.65625 Z M 142.101562 123.382812 C 143.578125 123.660156 145.0625 123.914062 146.550781 124.183594 C 150.722656 124.933594 154.503906 126.449219 158.375 128.117188 C 162.289062 129.796875 166.101562 131.703125 169.605469 134.132812 C 171.203125 135.238281 172.597656 136.53125 173.933594 137.886719 C 173.6875 137.679688 173.4375 137.46875 173.195312 137.265625 C 169.726562 134.355469 165.789062 132.054688 161.679688 130.175781 C 157.667969 128.339844 153.519531 126.980469 149.132812 126.441406 C 146.785156 126.152344 144.421875 125.960938 142.0625 125.761719 C 142.152344 125 142.164062 124.179688 142.101562 123.382812 Z M 141.441406 120.496094 C 141.421875 120.453125 141.410156 120.40625 141.390625 120.363281 C 143.996094 120.5625 146.433594 120.953125 148.949219 121.910156 C 151.675781 122.949219 154.363281 124.070312 156.867188 125.570312 C 159.289062 127.023438 161.667969 128.546875 164.066406 130.03125 C 164.097656 130.050781 164.132812 130.070312 164.164062 130.09375 C 162.691406 129.335938 161.1875 128.628906 159.679688 127.957031 C 155.972656 126.304688 152.253906 124.699219 148.265625 123.863281 C 146.207031 123.433594 144.121094 123.136719 142.042969 122.816406 C 141.929688 121.9375 141.730469 121.121094 141.441406 120.496094 Z M 174.207031 139.34375 C 173.050781 138.316406 171.867188 137.324219 170.636719 136.375 C 170.835938 136.5 171.027344 136.628906 171.214844 136.761719 C 171.414062 136.910156 171.613281 137.058594 171.808594 137.210938 C 172.089844 137.429688 172.359375 137.660156 172.632812 137.886719 C 173.171875 138.355469 173.691406 138.847656 174.207031 139.34375 Z M 141.335938 117.660156 C 144.722656 118.53125 148.078125 119.496094 151.328125 120.839844 C 156.367188 122.925781 161.125 125.464844 165.324219 128.964844 C 167.160156 130.496094 168.90625 132.128906 170.777344 133.628906 C 172.910156 135.34375 175.046875 137.027344 176.882812 139.070312 C 178.542969 140.917969 180.0625 142.914062 181.316406 145.058594 C 181.640625 145.617188 181.917969 146.183594 182.167969 146.757812 C 181.042969 144.757812 179.824219 142.863281 178.300781 141.109375 C 176.238281 138.738281 173.824219 136.667969 171.5 134.566406 C 169.363281 132.632812 166.84375 131.070312 164.429688 129.507812 C 161.75 127.769531 159.015625 126.089844 156.257812 124.472656 C 153.878906 123.082031 151.222656 122.0625 148.636719 121.128906 C 146.304688 120.285156 143.738281 119.785156 141.234375 119.902344 C 141.042969 119.164062 141.09375 118.40625 141.335938 117.660156 Z M 142.871094 115.070312 C 145.257812 115.542969 147.726562 116.804688 149.949219 117.757812 C 152.722656 118.941406 155.542969 120.035156 158.148438 121.566406 C 163.15625 124.507812 167.773438 128.074219 171.816406 132.234375 C 173.597656 134.066406 175.484375 135.675781 177.058594 137.707031 C 177.933594 138.839844 178.796875 139.984375 179.601562 141.167969 C 179.109375 140.550781 178.613281 139.957031 178.140625 139.398438 C 174.695312 135.339844 170.1875 132.179688 166.15625 128.722656 C 162.097656 125.246094 157.488281 122.800781 152.613281 120.675781 C 148.976562 119.09375 145.269531 118.082031 141.476562 117.269531 C 141.785156 116.511719 142.269531 115.765625 142.871094 115.070312 Z M 146.117188 115.292969 C 145.464844 115.066406 144.8125 114.832031 144.152344 114.621094 C 144.105469 114.609375 143.730469 114.496094 143.449219 114.445312 C 143.949219 113.9375 144.5 113.464844 145.074219 113.039062 C 148.164062 114.210938 151.125 115.703125 154.03125 117.304688 C 157.804688 119.382812 161.582031 121.464844 165.164062 123.871094 C 168.789062 126.308594 172.3125 129.09375 175.1875 132.398438 C 177.398438 134.933594 178.902344 137.894531 180.664062 140.703125 C 180.796875 140.976562 180.925781 141.25 181.050781 141.523438 C 180.335938 140.441406 179.558594 139.394531 178.789062 138.367188 C 176.90625 135.84375 174.769531 133.824219 172.5625 131.605469 C 168.238281 127.265625 163.488281 123.589844 158.1875 120.484375 C 155.691406 119.027344 152.933594 118.007812 150.273438 116.878906 C 148.90625 116.296875 147.523438 115.78125 146.117188 115.292969 Z M 145.472656 112.753906 C 145.929688 112.433594 146.398438 112.148438 146.859375 111.898438 C 147.628906 112.324219 148.488281 112.570312 149.320312 112.863281 C 150.96875 113.441406 152.5625 114.105469 154.082031 114.964844 C 156.636719 116.417969 158.898438 118.421875 161.207031 120.226562 C 162.398438 121.15625 163.609375 122.058594 164.820312 122.957031 C 161.285156 120.617188 157.539062 118.605469 153.828125 116.570312 C 151.140625 115.09375 148.375 113.714844 145.472656 112.753906 Z M 149.625 110.863281 C 150.40625 110.742188 151.628906 110.851562 152.867188 110.882812 C 155.5 112.359375 158.113281 113.871094 160.589844 115.605469 C 164.863281 118.59375 168.78125 122.238281 172.238281 126.136719 C 174.554688 128.746094 176.601562 131.570312 178.410156 134.539062 C 177.769531 133.589844 177.097656 132.648438 176.367188 131.738281 C 172.574219 127.007812 167.550781 123.6875 162.773438 120.0625 C 160.265625 118.164062 157.878906 116.066406 155.1875 114.429688 C 152.84375 113.003906 150.3125 112.285156 147.753906 111.457031 C 148.429688 111.15625 149.070312 110.949219 149.625 110.863281 Z M 157.515625 109.097656 C 157.710938 108.808594 157.894531 108.507812 158.09375 108.183594 C 158.371094 107.726562 158.726562 107.425781 159.128906 107.234375 C 159.636719 107.566406 160.144531 107.898438 160.644531 108.246094 C 163.425781 110.164062 165.847656 112.402344 168.242188 114.773438 C 170.511719 117.019531 172.699219 119.347656 174.710938 121.828125 C 176.40625 123.914062 177.867188 126.273438 179.617188 128.332031 C 179.898438 129.039062 180.183594 129.742188 180.496094 130.4375 C 182.34375 134.535156 184.535156 137.96875 185.539062 142.441406 C 186.207031 145.421875 186.667969 148.457031 187.09375 151.503906 C 186.675781 149.613281 186.1875 147.738281 185.664062 145.898438 C 184.9375 143.335938 184.167969 140.789062 183.152344 138.320312 C 182.027344 135.585938 180.507812 133.03125 178.996094 130.5 C 176.214844 125.847656 172.933594 121.609375 169.300781 117.589844 C 167.578125 115.679688 165.6875 113.929688 163.503906 112.554688 C 162.171875 111.714844 160.765625 110.980469 159.398438 110.199219 C 158.761719 109.832031 158.148438 109.449219 157.515625 109.097656 Z M 166.070312 109.339844 C 168.902344 111.328125 171.25 113.539062 173.273438 116.332031 C 174.917969 118.605469 176.242188 121.09375 177.851562 123.382812 C 178.082031 124.097656 178.320312 124.8125 178.566406 125.519531 C 177.601562 124.25 176.582031 123.015625 175.621094 121.785156 C 173.539062 119.125 171.167969 116.703125 168.753906 114.34375 C 166.574219 112.214844 164.382812 110.1875 161.867188 108.449219 C 161.15625 107.957031 160.425781 107.492188 159.6875 107.039062 C 161.785156 106.574219 164.78125 108.433594 166.070312 109.339844 Z M 176.417969 110.265625 L 176.46875 110.394531 C 178.125 114.394531 179.507812 118.355469 180.332031 122.605469 C 180.707031 124.523438 181.03125 126.496094 181.664062 128.34375 C 182.390625 130.480469 183.230469 132.570312 183.976562 134.695312 C 184.085938 135 184.1875 135.3125 184.285156 135.617188 C 183.339844 133.339844 182.277344 131.097656 181.402344 128.78125 C 179.273438 123.164062 176.589844 116.539062 176.417969 110.265625 Z M 176.417969 108.972656 C 176.429688 108.371094 176.472656 107.773438 176.542969 107.1875 C 176.628906 106.476562 176.796875 105.757812 177.054688 105.109375 C 177.859375 107.15625 178.589844 109.230469 179.390625 111.273438 C 180.503906 114.089844 181.007812 117.121094 181.503906 120.09375 C 182.007812 123.058594 182.667969 125.960938 183.398438 128.871094 C 184.066406 131.5 184.722656 134.121094 185.308594 136.769531 C 185.242188 136.550781 185.1875 136.332031 185.117188 136.117188 C 183.875 131.902344 182.054688 127.980469 181.175781 123.644531 C 180.363281 119.640625 179.335938 115.90625 177.757812 112.132812 C 177.320312 111.074219 176.871094 110.023438 176.417969 108.972656 Z M 180.355469 102.039062 C 180.59375 101.976562 180.835938 101.878906 181.046875 101.753906 C 184.410156 109.371094 186.773438 117.371094 187.34375 125.769531 C 187.757812 131.921875 188.96875 137.949219 189.160156 144.125 C 189.203125 145.402344 189.238281 146.679688 189.269531 147.957031 C 188.632812 141.859375 187.875 135.777344 186.933594 129.714844 C 186.46875 126.753906 185.8125 123.839844 185.234375 120.898438 C 184.644531 117.898438 184.160156 114.878906 183.34375 111.917969 C 182.4375 108.609375 181.058594 105.441406 179.613281 102.300781 C 179.847656 102.195312 180.089844 102.105469 180.355469 102.039062 Z M 180.097656 84.644531 C 180.277344 84.183594 180.515625 83.707031 180.820312 83.210938 C 181.070312 82.808594 181.421875 82.335938 181.84375 81.894531 C 184.128906 87.214844 186.195312 92.617188 187.460938 98.292969 C 189.082031 105.5625 190.21875 113.097656 190.824219 120.519531 C 191.136719 124.34375 190.925781 128.160156 190.894531 131.992188 C 190.875 134.222656 190.882812 136.457031 190.890625 138.6875 C 190.691406 132.527344 190.179688 126.335938 189.570312 120.222656 C 189.21875 116.695312 188.457031 113.328125 187.671875 109.882812 C 186.914062 106.546875 186.476562 103.144531 185.714844 99.804688 C 184.523438 94.570312 182.28125 89.59375 180.097656 84.644531 Z M 186.230469 81.179688 C 186.554688 81.523438 186.820312 81.898438 187.117188 82.242188 C 187.558594 83.285156 187.992188 84.332031 188.390625 85.390625 C 189.722656 88.933594 190.601562 92.628906 191.382812 96.328125 C 192.175781 100.085938 192.675781 103.917969 192.515625 107.765625 C 192.429688 109.796875 192.300781 111.800781 192.230469 113.8125 C 192.03125 112.351562 191.847656 110.890625 191.71875 109.414062 C 191.355469 105.242188 190.777344 101.085938 189.828125 97.003906 C 188.886719 92.960938 187.332031 89.082031 185.984375 85.167969 C 185.425781 83.550781 184.839844 81.984375 184.117188 80.457031 C 184.824219 80.308594 185.554688 80.472656 186.230469 81.179688 Z M 193.140625 83.539062 C 193.613281 83.472656 194.085938 83.386719 194.566406 83.292969 C 195.195312 87.320312 195.886719 91.34375 196.421875 95.378906 C 197.347656 102.402344 197.109375 109.320312 196.75 116.375 C 196.613281 119.046875 196.335938 121.691406 196.027344 124.339844 C 196.136719 122.617188 196.195312 120.886719 196.167969 119.183594 C 196.113281 115.699219 195.925781 112.234375 195.964844 108.742188 C 196.003906 105.273438 195.8125 101.835938 195.347656 98.398438 C 194.683594 93.492188 194.097656 88.457031 193.140625 83.539062 Z M 195.332031 83.132812 C 196.015625 82.980469 196.699219 82.820312 197.378906 82.667969 C 197.933594 87.054688 198.5625 91.433594 198.804688 95.851562 C 199 99.457031 198.746094 103.082031 198.4375 106.675781 C 198.238281 109.003906 197.886719 111.335938 197.613281 113.667969 C 197.882812 107.894531 197.972656 102.167969 197.25 96.398438 C 196.699219 91.992188 196.109375 87.539062 195.332031 83.132812 Z M 197.046875 121.476562 C 197.085938 121.132812 197.117188 120.785156 197.148438 120.4375 C 197.140625 120.722656 197.132812 121.007812 197.125 121.292969 C 197.101562 121.304688 197.078125 121.328125 197.070312 121.363281 C 197.0625 121.402344 197.054688 121.4375 197.046875 121.476562 Z M 197.058594 122.9375 C 197.066406 122.875 197.078125 122.8125 197.085938 122.753906 C 197.082031 122.808594 197.082031 122.867188 197.078125 122.921875 C 197.070312 122.925781 197.066406 122.929688 197.058594 122.9375 Z M 195.613281 129.113281 C 195.609375 129.253906 195.605469 129.390625 195.605469 129.53125 C 195.59375 129.53125 195.582031 129.539062 195.570312 129.546875 C 195.585938 129.402344 195.597656 129.257812 195.613281 129.113281 Z M 196.5625 126.992188 C 196.5625 127.105469 196.558594 127.21875 196.558594 127.328125 C 196.496094 127.988281 196.4375 128.644531 196.375 129.300781 C 196.378906 129.097656 196.386719 128.898438 196.390625 128.695312 C 196.441406 128.125 196.503906 127.558594 196.5625 126.992188 Z M 194.917969 129.054688 C 195.050781 126.457031 195.011719 123.832031 194.910156 121.253906 C 194.75 117.234375 194.523438 113.261719 194.542969 109.238281 C 194.558594 105.753906 194.503906 102.273438 194.089844 98.8125 C 193.476562 93.6875 192.023438 88.609375 190.382812 83.640625 C 191.074219 83.703125 191.785156 83.691406 192.507812 83.617188 C 193.253906 88.386719 193.988281 93.164062 194.667969 97.945312 C 195.179688 101.507812 195.351562 105.085938 195.324219 108.679688 C 195.296875 112.359375 195.472656 116.011719 195.527344 119.683594 C 195.570312 122.78125 195.265625 125.960938 194.917969 129.054688 Z M 194.933594 136.609375 C 194.910156 136.527344 194.902344 136.414062 194.910156 136.273438 C 194.910156 136.28125 194.910156 136.292969 194.914062 136.300781 C 194.925781 136.390625 194.929688 136.476562 194.9375 136.5625 C 194.9375 136.578125 194.933594 136.59375 194.933594 136.609375 Z M 194.796875 137.914062 C 194.804688 137.570312 194.820312 137.226562 194.839844 136.882812 C 194.867188 136.875 194.890625 136.859375 194.910156 136.839844 C 194.90625 136.84375 194.90625 136.847656 194.90625 136.851562 C 194.875 137.210938 194.839844 137.5625 194.796875 137.914062 Z M 214.390625 94.457031 C 214.339844 94.554688 214.289062 94.652344 214.242188 94.746094 C 213.023438 97.257812 212.191406 99.867188 211.328125 102.515625 C 209.625 107.726562 207.886719 112.921875 206.394531 118.195312 C 205.648438 120.824219 204.96875 123.476562 204.058594 126.050781 C 203.148438 128.640625 202.023438 131.15625 201.007812 133.707031 C 200.171875 135.8125 199.546875 137.96875 198.933594 140.136719 C 199.417969 138.109375 199.785156 136.070312 200.449219 134.0625 C 202.226562 128.675781 203.949219 123.269531 205.4375 117.792969 C 206.914062 112.355469 208.152344 106.894531 209.953125 101.542969 C 210.785156 99.066406 211.613281 96.585938 212.449219 94.109375 C 213.0625 94.269531 213.726562 94.367188 214.390625 94.457031 Z M 211.9375 93.953125 C 211.125 96.214844 210.332031 98.484375 209.535156 100.75 C 207.664062 106.074219 206.402344 111.519531 204.957031 116.96875 C 203.5 122.449219 201.789062 127.867188 199.980469 133.246094 C 199.414062 134.9375 198.9375 136.65625 198.496094 138.378906 C 198.523438 138.039062 198.546875 137.699219 198.574219 137.359375 C 198.808594 136.332031 199.039062 135.300781 199.257812 134.269531 C 199.484375 133.589844 199.722656 132.917969 199.898438 132.246094 C 200.625 129.5 201.375 126.761719 201.933594 123.976562 C 202.535156 120.992188 202.8125 117.957031 203.425781 114.972656 C 204.664062 108.910156 206.753906 102.992188 208.484375 97.058594 C 208.964844 95.417969 209.425781 93.769531 209.886719 92.121094 C 209.996094 92.320312 210.097656 92.519531 210.222656 92.710938 C 210.621094 93.328125 211.226562 93.703125 211.9375 93.953125 Z M 200.621094 82.128906 C 200.621094 82.304688 200.625 82.480469 200.625 82.65625 C 200.652344 86.128906 200.707031 89.601562 200.734375 93.074219 C 200.785156 100.050781 200.125 107.070312 199.101562 113.960938 C 198.578125 117.496094 198.503906 121.023438 198.316406 124.589844 C 198.128906 128.160156 197.824219 131.722656 197.515625 135.285156 C 197.464844 135.851562 197.414062 136.414062 197.363281 136.972656 C 197.273438 137.476562 197.183594 137.980469 197.089844 138.484375 C 197.691406 131.5625 197.941406 124.617188 198.125 117.675781 C 198.171875 115.945312 198.550781 114.226562 198.765625 112.511719 C 199 110.601562 199.132812 108.675781 199.296875 106.761719 C 199.597656 103.277344 199.777344 99.785156 199.628906 96.289062 C 199.433594 91.6875 198.652344 87.121094 197.898438 82.554688 C 198.824219 82.359375 199.734375 82.199219 200.621094 82.128906 Z M 203.027344 82.238281 C 202.871094 86.992188 202.820312 91.753906 202.523438 96.5 C 202.070312 103.714844 200.640625 110.800781 199.652344 117.949219 C 199.511719 118.949219 199.40625 119.949219 199.304688 120.949219 C 199.40625 118.835938 199.53125 116.726562 199.820312 114.617188 C 200.773438 107.683594 201.480469 100.742188 201.476562 93.734375 C 201.476562 90.253906 201.292969 86.769531 201.222656 83.292969 C 201.214844 82.898438 201.191406 82.496094 201.175781 82.097656 C 201.8125 82.078125 202.429688 82.121094 203.027344 82.238281 Z M 189.972656 165.195312 C 189.960938 165.234375 189.953125 165.277344 189.945312 165.316406 C 189.945312 165.304688 189.945312 165.296875 189.945312 165.285156 C 189.953125 165.25 189.960938 165.210938 189.96875 165.175781 C 189.96875 165.183594 189.96875 165.191406 189.972656 165.195312 Z M 191.910156 81.09375 C 188.675781 81.613281 186.996094 79 184.015625 79.195312 C 181.976562 79.328125 179.902344 81.78125 179.050781 83.417969 C 177.550781 86.3125 177.800781 88.792969 178.386719 91.894531 C 178.65625 93.332031 179.332031 94.742188 179.675781 96.179688 C 179.839844 96.863281 179.960938 97.609375 179.976562 98.355469 C 179.980469 98.664062 179.964844 98.976562 179.925781 99.28125 L 179.925781 99.285156 C 179.882812 99.597656 179.820312 99.902344 179.722656 100.1875 C 179.714844 100.207031 179.363281 100.476562 178.929688 100.8125 C 178.773438 100.933594 178.597656 101.066406 178.433594 101.191406 C 178 101.523438 177.589844 101.84375 177.425781 101.980469 C 177.175781 102.179688 176.957031 102.417969 176.765625 102.675781 C 176.601562 102.878906 176.460938 103.105469 176.335938 103.34375 C 175.828125 104.269531 175.546875 105.386719 175.355469 106.492188 C 175.304688 106.792969 175.261719 107.097656 175.222656 107.386719 C 175.136719 108.023438 175.078125 108.636719 175.019531 109.175781 C 174.710938 111.925781 175.234375 114.5625 175.957031 117.175781 C 175.664062 116.820312 175.359375 116.453125 175.042969 116.070312 C 172.59375 113.117188 169.9375 110.515625 166.835938 108.246094 C 164.390625 106.460938 161.367188 105.070312 158.324219 105.90625 C 156.929688 106.289062 156.300781 107.742188 154.90625 108.171875 C 153.210938 108.691406 150.996094 108.292969 149.222656 108.425781 C 145.695312 108.683594 144.722656 111.511719 142.484375 113.808594 C 140.390625 115.957031 138.9375 119.242188 139.402344 122.246094 C 139.890625 125.421875 139.613281 127.875 136.671875 129.746094 C 135.214844 130.671875 134.226562 131.558594 133.296875 133.015625 C 132.105469 134.878906 131.894531 137.085938 132.410156 139.117188 C 132.371094 139.15625 132.347656 139.207031 132.367188 139.277344 C 133.734375 144.5 137.863281 146.351562 143.003906 146.355469 C 148.914062 146.363281 154.980469 144.828125 160.765625 143.789062 C 164.539062 143.109375 167.621094 144.042969 171.054688 145.472656 C 172.984375 146.273438 174.988281 146.875 176.835938 147.878906 C 178.695312 148.886719 180.101562 150.785156 181.410156 152.40625 C 183.921875 155.527344 186.113281 158.996094 187.652344 162.691406 C 188.734375 165.296875 188.828125 167.953125 189.101562 170.636719 C 189.039062 171.179688 188.980469 171.722656 188.925781 172.265625 C 188.523438 176.425781 188.816406 180.738281 188.902344 184.925781 C 188.917969 185.300781 188.941406 185.675781 188.949219 186.054688 C 188.972656 187.078125 188.9375 188.058594 188.867188 189.023438 C 188.820312 189.882812 188.75 190.742188 188.621094 191.609375 C 188.554688 192.03125 188.457031 192.441406 188.34375 192.84375 C 188.128906 193.941406 187.871094 195.042969 187.5625 196.183594 C 187.285156 197.21875 187.0625 198.253906 186.804688 199.269531 C 191.820312 191.707031 190.105469 182.109375 190.546875 173.519531 C 190.652344 171.410156 190.914062 169.292969 191.300781 167.1875 C 193.554688 162.4375 196.4375 158.285156 200.789062 155.070312 C 206.457031 150.890625 212.539062 150.425781 219.183594 152.265625 C 221.851562 153.003906 224.234375 153.96875 227.046875 153.957031 C 229.480469 153.945312 232.003906 152.78125 234.300781 152.144531 C 237.101562 151.371094 242.183594 149.71875 242.550781 146.136719 C 242.976562 144.253906 243.085938 142.460938 242.875 140.589844 C 242.511719 137.3125 238.707031 135.234375 237.898438 132.152344 C 238.300781 130.703125 239.121094 129.257812 239.992188 127.621094 C 241.085938 125.570312 241.25 122.78125 241.21875 120.519531 C 241.203125 119.074219 240.640625 117.71875 239.222656 117.191406 C 238.53125 116.9375 236.726562 117.15625 236.210938 117.160156 C 234.539062 117.171875 233.183594 116.851562 231.632812 116.238281 C 229.773438 115.5 227.652344 113.714844 225.507812 113.941406 C 224.515625 114.046875 223.644531 114.300781 222.839844 114.683594 C 223.609375 113.425781 224.175781 111.953125 224.464844 110.605469 C 224.726562 109.386719 225.539062 105.707031 224.652344 103.9375 C 224.453125 102.570312 224.058594 101.234375 223.382812 100.09375 C 222.902344 99.277344 222.832031 98.773438 222.097656 98.128906 C 221.308594 97.429688 220.785156 97.859375 220.660156 96.363281 C 220.644531 96.15625 220.539062 95.988281 220.433594 95.816406 C 220.265625 95.554688 220.425781 94.726562 220 94.261719 C 219.003906 93.183594 217.972656 92.882812 216.539062 92.542969 C 214.179688 91.976562 211.535156 91.765625 210.113281 89.40625 C 209.179688 87.855469 208.957031 85.816406 208.101562 84.183594 C 204.859375 77.972656 197.265625 80.25 191.910156 81.09375 " fill-opacity="1" fill-rule="nonzero"/></g></svg>